<svg xmlns="http://www.w3.org/2000/svg" xmlns:xlink="http://www.w3.org/1999/xlink" width="660" height="518" viewBox="0 0 660 518"><defs><pattern id="d" data-name="water-waves" width="98.69" height="49.02" patternUnits="userSpaceOnUse" viewBox="0 0 98.69 49.02"><path fill="none" d="M0 0h98.69v49.02H0z"/><path d="M98.48 15.77l.21-.36v1.84a7.73 7.73 0 0 1-2.79 2.55 8.09 8.09 0 0 1-4.79 1.15 7.29 7.29 0 0 0-4.31 1 7.21 7.21 0 0 0-3 3.21 8.7 8.7 0 0 1-8.18 4.72 7.77 7.77 0 0 0-7.36 4.24A8.71 8.71 0 0 1 60 38.86a7.77 7.77 0 0 0-7.36 4.24 8.71 8.71 0 0 1-8.18 4.72 7.3 7.3 0 0 0-4.31 1l-.28.18h-1.6a9.29 9.29 0 0 1 1.41-1 8.08 8.08 0 0 1 4.79-1.15 7.77 7.77 0 0 0 7.36-4.24 8.71 8.71 0 0 1 8.18-4.72 7.29 7.29 0 0 0 4.31-1 7.21 7.21 0 0 0 3-3.21A8.7 8.7 0 0 1 75.59 29a7.77 7.77 0 0 0 7.35-4.24A8.71 8.71 0 0 1 91.13 20a7.24 7.24 0 0 0 4.31-1 7.22 7.22 0 0 0 3.04-3.23zm-2.19 9.41a8.72 8.72 0 0 0 2.4-.22v1a9.78 9.78 0 0 1-2.41.19 7.77 7.77 0 0 0-7.35 4.24 8.7 8.7 0 0 1-8.18 4.72 7.77 7.77 0 0 0-7.36 4.24A8.7 8.7 0 0 1 65.21 44a7.3 7.3 0 0 0-4.31 1 7.22 7.22 0 0 0-3 3.21c-.14.25-.29.5-.44.75h-1.17a12.42 12.42 0 0 0 .71-1.15 8.71 8.71 0 0 1 8.18-4.72 7.77 7.77 0 0 0 7.36-4.24 8.7 8.7 0 0 1 8.18-4.72 7.77 7.77 0 0 0 7.35-4.24 8.7 8.7 0 0 1 8.18-4.72zM96.71 7a8.83 8.83 0 0 1 2-.86v1a8.07 8.07 0 0 0-1.51.69 7.22 7.22 0 0 0-3 3.21 8.1 8.1 0 0 1-3.4 3.56 8.06 8.06 0 0 1-4.79 1.15A7.77 7.77 0 0 0 78.6 20a8.1 8.1 0 0 1-3.4 3.56 8.08 8.08 0 0 1-4.79 1.15A7.77 7.77 0 0 0 63.06 29a8.71 8.71 0 0 1-8.18 4.72 7.77 7.77 0 0 0-7.36 4.24 8.71 8.71 0 0 1-8.18 4.72 7.3 7.3 0 0 0-4.31 1 7.22 7.22 0 0 0-3 3.21A9.42 9.42 0 0 1 30.48 49h-1.42a7.44 7.44 0 0 0 2.11-2.59 8.71 8.71 0 0 1 8.18-4.72 7.77 7.77 0 0 0 7.36-4.24 8.7 8.7 0 0 1 8.18-4.72 7.77 7.77 0 0 0 7.35-4.24 8.71 8.71 0 0 1 8.18-4.72 7.77 7.77 0 0 0 7.35-4.24A8.7 8.7 0 0 1 86 14.84a7.27 7.27 0 0 0 4.31-1 7.22 7.22 0 0 0 3-3.21A8.1 8.1 0 0 1 96.71 7zm1.74 33.19l.24-.43v1.85a7.72 7.72 0 0 1-2.82 2.6 8.1 8.1 0 0 1-4.79 1.15 7.27 7.27 0 0 0-4.31 1A6.84 6.84 0 0 0 84.09 49H83a8 8 0 0 1 3.3-3.4 8.06 8.06 0 0 1 4.79-1.15 7.77 7.77 0 0 0 7.35-4.24zM0 7V6a8.59 8.59 0 0 1 3.18-.41 7.23 7.23 0 0 0 4.31-1 7.22 7.22 0 0 0 3-3.21A13.39 13.39 0 0 1 11.35 0h1.21a9.17 9.17 0 0 0-1.2 1.77A8.09 8.09 0 0 1 8 5.33a8.08 8.08 0 0 1-4.83 1.15A7.45 7.45 0 0 0 0 7zm96.67 24.5a8.8 8.8 0 0 1 2-.87v1a8.08 8.08 0 0 0-1.55.7 7.22 7.22 0 0 0-3 3.21 8.7 8.7 0 0 1-8.18 4.72 7.77 7.77 0 0 0-7.35 4.24 8.1 8.1 0 0 1-3.43 3.5 8.33 8.33 0 0 1-2.46 1h-6.36a8.14 8.14 0 0 1 4.05-.76A7.77 7.77 0 0 0 77.74 44a8.71 8.71 0 0 1 8.18-4.72 7.29 7.29 0 0 0 4.31-1 7.22 7.22 0 0 0 3-3.21 8.1 8.1 0 0 1 3.44-3.57zm2-31v1a9.89 9.89 0 0 1-2.37.18 7.2 7.2 0 0 0-4.31 1A7.22 7.22 0 0 0 89 5.9a8.1 8.1 0 0 1-3.4 3.56 8.08 8.08 0 0 1-4.79 1.15 7.77 7.77 0 0 0-7.35 4.24A8.1 8.1 0 0 1 70 18.42a8.1 8.1 0 0 1-4.79 1.15 7.77 7.77 0 0 0-7.36 4.24 8.1 8.1 0 0 1-3.4 3.56 8.06 8.06 0 0 1-4.79 1.15 7.3 7.3 0 0 0-4.31 1 7.22 7.22 0 0 0-3 3.21 8.7 8.7 0 0 1-8.18 4.72 7.77 7.77 0 0 0-7.36 4.24 8.1 8.1 0 0 1-3.4 3.56 8.1 8.1 0 0 1-4.79 1.15 7.28 7.28 0 0 0-4.31 1 7.31 7.31 0 0 0-1.93 1.6H11.2a7.79 7.79 0 0 1 2.66-2.36 8.07 8.07 0 0 1 4.79-1.15 7.28 7.28 0 0 0 4.31-1 7.22 7.22 0 0 0 3-3.21 8.71 8.71 0 0 1 8.18-4.72 7.77 7.77 0 0 0 7.35-4.24 8.71 8.71 0 0 1 8.18-4.72 7.77 7.77 0 0 0 7.36-4.24 8.7 8.7 0 0 1 8.18-4.72 7.27 7.27 0 0 0 4.31-1 7.22 7.22 0 0 0 3-3.21 8.1 8.1 0 0 1 3.48-3.6 8.06 8.06 0 0 1 4.79-1.15 7.28 7.28 0 0 0 4.31-1 7.22 7.22 0 0 0 3-3.21 8.1 8.1 0 0 1 3.4-3.56A8.09 8.09 0 0 1 96.33.72a8.71 8.71 0 0 0 2.36-.21zM1 15.89a11.84 11.84 0 0 1-1 1.54v-1.7l.17-.3a8.1 8.1 0 0 1 3.4-3.56 8.09 8.09 0 0 1 4.79-1.15 7.26 7.26 0 0 0 4.31-1 7.22 7.22 0 0 0 3-3.21 8.1 8.1 0 0 1 3.4-3.56 8.12 8.12 0 0 1 4.79-1.15 7.27 7.27 0 0 0 4.31-1 8.66 8.66 0 0 0 1.1-.8h1.38a8.44 8.44 0 0 1-2 1.54 8.07 8.07 0 0 1-4.79 1.15 7.22 7.22 0 0 0-4.31 1 7.23 7.23 0 0 0-3 3.21 8.1 8.1 0 0 1-3.4 3.56 8.1 8.1 0 0 1-4.79 1.15 7.29 7.29 0 0 0-4.31 1A7.22 7.22 0 0 0 1 15.89zM2.79.17A8.08 8.08 0 0 1 0 1.21v-1A6.38 6.38 0 0 0 .94 0h2.12zm0 24.46a8.13 8.13 0 0 1-2.76 1v-1a7.33 7.33 0 0 0 2.29-.9 7.22 7.22 0 0 0 3-3.21A8.1 8.1 0 0 1 8.73 17a8.1 8.1 0 0 1 4.79-1.15 7.26 7.26 0 0 0 4.31-1 7.22 7.22 0 0 0 3-3.21 8.1 8.1 0 0 1 3.4-3.56 8.07 8.07 0 0 1 4.79-1.15 7.27 7.27 0 0 0 4.31-1 7.21 7.21 0 0 0 3-3.21A8.41 8.41 0 0 1 38.52 0h1.64a7.23 7.23 0 0 0-2.93 3.14 8.09 8.09 0 0 1-3.4 3.56A8.09 8.09 0 0 1 29 7.86a7.25 7.25 0 0 0-4.31 1 7.22 7.22 0 0 0-3 3.21 8.1 8.1 0 0 1-3.4 3.56 8.09 8.09 0 0 1-4.79 1.15 7.29 7.29 0 0 0-4.31 1 7.22 7.22 0 0 0-3 3.21 8.09 8.09 0 0 1-3.43 3.63zM9.16 42.3a7.22 7.22 0 0 0-3 3.21A8.11 8.11 0 0 1 2.81 49H.54a7.87 7.87 0 0 0 1.71-.75 7.23 7.23 0 0 0 3-3.21 8.1 8.1 0 0 1 3.4-3.56 8.1 8.1 0 0 1 4.79-1.15 7.29 7.29 0 0 0 4.31-1 7.22 7.22 0 0 0 3-3.21 8.1 8.1 0 0 1 3.4-3.56A8.09 8.09 0 0 1 29 31.38a7.77 7.77 0 0 0 7.36-4.24 8.71 8.71 0 0 1 8.18-4.72 7.77 7.77 0 0 0 7.35-4.24 8.7 8.7 0 0 1 8.18-4.72 7.26 7.26 0 0 0 4.31-1 7.22 7.22 0 0 0 3-3.21 8.09 8.09 0 0 1 3.4-3.56 8.08 8.08 0 0 1 4.79-1.15 7.25 7.25 0 0 0 4.31-1A7.22 7.22 0 0 0 83 .27l.14-.27h1.09c-.15.24-.29.48-.43.73a8.1 8.1 0 0 1-3.4 3.56 8.09 8.09 0 0 1-4.79 1.15 7.77 7.77 0 0 0-7.36 4.24 8.09 8.09 0 0 1-3.39 3.56 8.08 8.08 0 0 1-4.79 1.15 7.77 7.77 0 0 0-7.36 4.24 8.09 8.09 0 0 1-3.4 3.56 8.1 8.1 0 0 1-4.79 1.15 7.77 7.77 0 0 0-7.36 4.24 8.1 8.1 0 0 1-3.4 3.56A8.1 8.1 0 0 1 29 32.32a7.3 7.3 0 0 0-4.31 1 7.22 7.22 0 0 0-3 3.21 8.09 8.09 0 0 1-3.4 3.56 8.09 8.09 0 0 1-4.79 1.15 7.26 7.26 0 0 0-4.34 1.06zm-8.21-2A12.12 12.12 0 0 1 0 41.84v-1.72l.13-.23a8.1 8.1 0 0 1 3.4-3.56 8.1 8.1 0 0 1 4.79-1.15 7.26 7.26 0 0 0 4.31-1 7.22 7.22 0 0 0 3-3.21 8.1 8.1 0 0 1 3.4-3.56 8.1 8.1 0 0 1 4.79-1.15 7.26 7.26 0 0 0 4.31-1 7.22 7.22 0 0 0 3-3.21 8.7 8.7 0 0 1 8.18-4.72 7.26 7.26 0 0 0 4.31-1 7.21 7.21 0 0 0 3-3.21 8.1 8.1 0 0 1 3.4-3.56 8.08 8.08 0 0 1 4.9-1.26 7.28 7.28 0 0 0 4.31-1 7.22 7.22 0 0 0 3-3.21A8.1 8.1 0 0 1 65.67.5a9.86 9.86 0 0 1 1-.5h6.56a9 9 0 0 1-2.78.28 7.26 7.26 0 0 0-4.31 1 7.22 7.22 0 0 0-3 3.21 8.1 8.1 0 0 1-3.4 3.56 8.07 8.07 0 0 1-4.79 1.15 7.77 7.77 0 0 0-7.35 4.24A8.1 8.1 0 0 1 44.16 17a8.07 8.07 0 0 1-4.79 1.15A7.77 7.77 0 0 0 32 22.43 8.1 8.1 0 0 1 28.63 26a8.08 8.08 0 0 1-4.79 1.15 7.3 7.3 0 0 0-4.31 1 7.22 7.22 0 0 0-3 3.21A8.1 8.1 0 0 1 13.09 35a8.1 8.1 0 0 1-4.79 1.11 7.24 7.24 0 0 0-4.31 1 7.22 7.22 0 0 0-3.04 3.24zm2.19-9.41A7.62 7.62 0 0 0 0 31.4v-1a8.61 8.61 0 0 1 3.15-.4 7.28 7.28 0 0 0 4.31-1 7.22 7.22 0 0 0 3-3.21 8.1 8.1 0 0 1 3.4-3.56A8.08 8.08 0 0 1 18.68 21 7.22 7.22 0 0 0 23 20a7.22 7.22 0 0 0 3-3.21 8.1 8.1 0 0 1 3.4-3.56 8.06 8.06 0 0 1 4.79-1.15 7.26 7.26 0 0 0 4.31-1 7.22 7.22 0 0 0 3-3.21A8.1 8.1 0 0 1 45 4.29a8.05 8.05 0 0 1 4.79-1.15 7.27 7.27 0 0 0 4.31-1A6.89 6.89 0 0 0 56.44 0h1.11a7.72 7.72 0 0 1-3 2.92 8.1 8.1 0 0 1-4.79 1.15 7.26 7.26 0 0 0-4.31 1 7.22 7.22 0 0 0-3 3.21A8.1 8.1 0 0 1 39 11.87 8.06 8.06 0 0 1 34.21 13a7.77 7.77 0 0 0-7.36 4.24 8.09 8.09 0 0 1-3.4 3.56 8.08 8.08 0 0 1-4.78 1.2 7.2 7.2 0 0 0-4.31 1 7.23 7.23 0 0 0-3 3.21 8.1 8.1 0 0 1-3.4 3.56 8.1 8.1 0 0 1-4.82 1.17z" fill="#5bc4f1"/></pattern><clipPath id="e"><path fill="none" d="M0 0h79.58v61.61H0z"/></clipPath><clipPath id="a"><path fill="none" d="M-.01 15.93h16.55v15.93H-.01z"/></clipPath><clipPath id="b"><path fill="none" d="M16.53 0h16.55v15.93H16.53z"/></clipPath><clipPath id="c"><path fill="none" d="M-.01 0h16.55v15.93H-.01z"/></clipPath><clipPath id="f"><circle cx="6.78" cy="6.61" r="2.86" transform="rotate(-.17 6.73 6.75)"/></clipPath><pattern id="g" data-name="land-mass-dots" width="16.55" height="15.93" patternUnits="userSpaceOnUse" viewBox="0 0 16.55 15.93"><path fill="none" d="M0 0h16.55v15.93H0z"/><g clip-path="url(#a)"><path d="M10.69 16.42a.48.48 0 0 0 .41-.23.47.47 0 0 0-.18-.64.46.46 0 0 0-.63.17.46.46 0 0 0 .4.7z" fill="#1a1a1a"/></g><g clip-path="url(#b)"><path d="M16.56 7a.46.46 0 0 0 .4-.24.46.46 0 0 0-.17-.64.47.47 0 0 0-.64.18.46.46 0 0 0 .18.63.39.39 0 0 0 .23.07z" fill="#1a1a1a"/></g><g clip-path="url(#c)" fill="#1a1a1a"><path d="M16.54 7a.45.45 0 0 0 .4-.23.47.47 0 0 0-.17-.64.47.47 0 0 0-.64.17.47.47 0 0 0 .17.7.53.53 0 0 0 .24 0zM14.1 5.63a.48.48 0 0 0 .41-.23.47.47 0 0 0-.17-.64.47.47 0 0 0-.64.17.46.46 0 0 0 .4.7zM11.67 4.23a.46.46 0 0 0 .4-.24.45.45 0 0 0-.17-.63.46.46 0 0 0-.64.17.47.47 0 0 0 .41.7zM9.24 2.83a.47.47 0 0 0 .4-.24.47.47 0 0 0-.17-.64.47.47 0 0 0-.64.17.47.47 0 0 0 .17.64.45.45 0 0 0 .24.07zM6.8 1.42a.48.48 0 0 0 .41-.23A.47.47 0 0 0 7 .55a.47.47 0 0 0-.6.17.46.46 0 0 0 .4.7zM15.55 3.3a.47.47 0 0 0 .45-.24.47.47 0 0 0-.17-.64.47.47 0 0 0-.64.17.47.47 0 0 0 .17.64.43.43 0 0 0 .19.07zM13.12 1.89a.47.47 0 0 0 .41-.23.47.47 0 0 0-.17-.66.47.47 0 0 0-.64.17.47.47 0 0 0 .17.64.46.46 0 0 0 .23.08zM10.69.49a.48.48 0 0 0 .41-.23.47.47 0 0 0-.18-.64.46.46 0 0 0-.63.17.46.46 0 0 0 .17.64.47.47 0 0 0 .23.06zM15.08 9.37a.5.5 0 0 0 .41-.23.48.48 0 0 0-.17-.65.47.47 0 0 0-.64.18.46.46 0 0 0 .4.7zM12.65 8a.49.49 0 0 0 .41-.24.47.47 0 0 0-.18-.64.47.47 0 0 0-.64.17.47.47 0 0 0 .17.64.44.44 0 0 0 .24.07zM10.21 6.56a.47.47 0 0 0 .41-.23.47.47 0 0 0-.17-.64.47.47 0 0 0-.64.17.47.47 0 0 0 .19.64.52.52 0 0 0 .21.06zM7.78 5.16a.48.48 0 0 0 .41-.23.47.47 0 0 0-.19-.64.47.47 0 0 0-.64.17.47.47 0 0 0 .17.64.46.46 0 0 0 .25.06zM5.35 3.76a.45.45 0 0 0 .4-.23.46.46 0 0 0-.17-.64.46.46 0 0 0-.64.17.48.48 0 0 0 .18.64.46.46 0 0 0 .23.06zM2.92 2.36a.46.46 0 0 0 .4-.24.47.47 0 0 0-.17-.64.47.47 0 0 0-.64.17.47.47 0 0 0 .17.64.44.44 0 0 0 .24.07zM.48.95A.47.47 0 0 0 .89.72.47.47 0 0 0 .72.08a.47.47 0 0 0-.64.17.46.46 0 0 0 .4.7zM16.06 13.11a.49.49 0 0 0 .41-.24.47.47 0 0 0-.18-.64.45.45 0 0 0-.63.18.45.45 0 0 0 .17.63.39.39 0 0 0 .23.07zM13.63 11.7a.45.45 0 0 0 .4-.23.46.46 0 0 0-.17-.64.47.47 0 0 0-.64.17.47.47 0 0 0 .17.64.53.53 0 0 0 .24.06zM11.19 10.3a.47.47 0 0 0 .41-.23.47.47 0 0 0-.17-.64.47.47 0 0 0-.64.17.47.47 0 0 0 .17.64.47.47 0 0 0 .23.06zM8.76 8.9a.48.48 0 0 0 .41-.23A.47.47 0 0 0 9 8a.46.46 0 0 0-.64.17.46.46 0 0 0 .4.7zM6.33 7.5a.46.46 0 0 0 .4-.24.46.46 0 0 0-.17-.64.47.47 0 0 0-.64.17.47.47 0 0 0 .17.64.44.44 0 0 0 .24.07zM3.89 6.09a.47.47 0 0 0 .41-.23.47.47 0 0 0-.17-.64.47.47 0 0 0-.64.17.47.47 0 0 0 .17.61.52.52 0 0 0 .23.09zM1.46 4.69a.48.48 0 0 0 .41-.23.47.47 0 0 0-.17-.64.46.46 0 0 0-.64.18.46.46 0 0 0 .4.7zM14.61 15.44a.45.45 0 0 0 .4-.23.46.46 0 0 0-.17-.64.47.47 0 0 0-.64.17.47.47 0 0 0 .17.64.53.53 0 0 0 .24.06zM12.17 14a.46.46 0 0 0 .41-.23.47.47 0 0 0-.17-.64.46.46 0 0 0-.64.17.47.47 0 0 0 .17.64.47.47 0 0 0 .23.06zM9.74 12.64a.49.49 0 0 0 .41-.24.47.47 0 0 0-.17-.64.47.47 0 0 0-.64.18.45.45 0 0 0 .17.63.39.39 0 0 0 .23.07zM7.31 11.23a.45.45 0 0 0 .4-.23.46.46 0 0 0-.17-.64.47.47 0 0 0-.64.17.47.47 0 0 0 .17.64.53.53 0 0 0 .24.06zM4.87 9.83a.47.47 0 0 0 .41-.23.47.47 0 0 0-.17-.6.47.47 0 0 0-.64.17.47.47 0 0 0 .17.64.53.53 0 0 0 .23.02zM2.44 8.43a.48.48 0 0 0 .41-.23.47.47 0 0 0-.17-.64.46.46 0 0 0-.68.17.47.47 0 0 0 .17.64.47.47 0 0 0 .27.06zM0 7a.46.46 0 0 0 .4-.24.46.46 0 0 0-.17-.64.47.47 0 0 0-.64.18.46.46 0 0 0 .19.7A.39.39 0 0 0 0 7zM10.72 16.38a.49.49 0 0 0 .41-.24.47.47 0 0 0-.13-.64.46.46 0 0 0-.63.17.46.46 0 0 0 .17.64.47.47 0 0 0 .18.07zM8.29 15a.45.45 0 0 0 .4-.23.46.46 0 0 0-.17-.64.47.47 0 0 0-.64.17.47.47 0 0 0 .17.64.53.53 0 0 0 .24.06zM5.85 13.57a.47.47 0 0 0 .41-.23.47.47 0 0 0-.17-.64.46.46 0 0 0-.64.17.47.47 0 0 0 .17.64.53.53 0 0 0 .23.06zM3.42 12.17a.49.49 0 0 0 .41-.24.47.47 0 0 0-.17-.64.46.46 0 0 0-.64.18H3a.45.45 0 0 0 .17.63.39.39 0 0 0 .25.07zM1 10.76a.48.48 0 0 0 .41-.23.48.48 0 0 0-.18-.64.47.47 0 0 0-.64.17.47.47 0 0 0 .18.64.38.38 0 0 0 .23.06zM4.4 15.9a.48.48 0 0 0 .41-.23.47.47 0 0 0-.17-.67.47.47 0 0 0-.64.2.46.46 0 0 0 .17.64.38.38 0 0 0 .23.06zM2 14.5a.48.48 0 0 0 .41-.23.47.47 0 0 0-.18-.64.47.47 0 0 0-.64.17.47.47 0 0 0 .18.64.47.47 0 0 0 .23.06z"/></g></pattern><pattern id="h" data-name="vertical-scores" width="3.33" height="7.17" patternUnits="userSpaceOnUse" viewBox="0 0 3.33 7.17"><path fill="none" d="M0 0h3.33v7.17H0z"/><path fill="#a32523" d="M0 0h.5v2.33H0z"/><path fill="none" d="M0 0h3.33v7.17H0z"/></pattern><pattern id="i" data-name="New Pattern Swatch 6" width="198.01" height="151" patternUnits="userSpaceOnUse" viewBox="0 0 198.01 151"><path fill="none" d="M0 0h198.01v151H0z"/><path fill="none" stroke="#f1956f" stroke-miterlimit="10" d="M0 .5h198.01M0 7.02h198.01M0 13.54h198.01M0 20.07h198.01M0 26.59h198.01M0 33.11h198.01M0 39.63h198.01M0 46.15h198.01M0 52.67h198.01M0 59.2h198.01M0 65.72h198.01M0 72.24h198.01M0 78.76h198.01M0 85.28h198.01M0 91.8h198.01M0 98.33h198.01M0 104.85h198.01M0 111.37h198.01M0 117.89h198.01M0 124.41h198.01M0 130.93h198.01M0 137.46h198.01M0 143.98h198.01M0 150.5h198.01"/><path fill="none" d="M24 .5h150v150H24z"/></pattern><pattern id="j" data-name="water-waves" width="98.69" height="49.02" patternUnits="userSpaceOnUse" viewBox="0 0 98.69 49.02"><path fill="none" d="M0 0h98.69v49.02H0z"/><path d="M98.48 15.77l.21-.36v1.84a7.73 7.73 0 0 1-2.79 2.55 8.09 8.09 0 0 1-4.79 1.15 7.29 7.29 0 0 0-4.31 1 7.21 7.21 0 0 0-3 3.21 8.7 8.7 0 0 1-8.18 4.72 7.77 7.77 0 0 0-7.36 4.24A8.71 8.71 0 0 1 60 38.86a7.77 7.77 0 0 0-7.36 4.24 8.71 8.71 0 0 1-8.18 4.72 7.3 7.3 0 0 0-4.31 1l-.28.18h-1.6a9.29 9.29 0 0 1 1.41-1 8.08 8.08 0 0 1 4.79-1.15 7.77 7.77 0 0 0 7.36-4.24 8.71 8.71 0 0 1 8.18-4.72 7.29 7.29 0 0 0 4.31-1 7.21 7.21 0 0 0 3-3.21A8.7 8.7 0 0 1 75.59 29a7.77 7.77 0 0 0 7.35-4.24A8.71 8.71 0 0 1 91.13 20a7.24 7.24 0 0 0 4.31-1 7.22 7.22 0 0 0 3.04-3.23zm-2.19 9.41a8.72 8.72 0 0 0 2.4-.22v1a9.78 9.78 0 0 1-2.41.19 7.77 7.77 0 0 0-7.35 4.24 8.7 8.7 0 0 1-8.18 4.72 7.77 7.77 0 0 0-7.36 4.24A8.7 8.7 0 0 1 65.21 44a7.3 7.3 0 0 0-4.31 1 7.22 7.22 0 0 0-3 3.21c-.14.25-.29.5-.44.75h-1.17a12.42 12.42 0 0 0 .71-1.15 8.71 8.71 0 0 1 8.18-4.72 7.77 7.77 0 0 0 7.36-4.24 8.7 8.7 0 0 1 8.18-4.72 7.77 7.77 0 0 0 7.35-4.24 8.7 8.7 0 0 1 8.18-4.72zM96.71 7a8.83 8.83 0 0 1 2-.86v1a8.07 8.07 0 0 0-1.51.69 7.22 7.22 0 0 0-3 3.21 8.1 8.1 0 0 1-3.4 3.56 8.06 8.06 0 0 1-4.79 1.15A7.77 7.77 0 0 0 78.6 20a8.1 8.1 0 0 1-3.4 3.56 8.08 8.08 0 0 1-4.79 1.15A7.77 7.77 0 0 0 63.06 29a8.71 8.71 0 0 1-8.18 4.72 7.77 7.77 0 0 0-7.36 4.24 8.71 8.71 0 0 1-8.18 4.72 7.3 7.3 0 0 0-4.31 1 7.22 7.22 0 0 0-3 3.21A9.42 9.42 0 0 1 30.48 49h-1.42a7.44 7.44 0 0 0 2.11-2.59 8.71 8.71 0 0 1 8.18-4.72 7.77 7.77 0 0 0 7.36-4.24 8.7 8.7 0 0 1 8.18-4.72 7.77 7.77 0 0 0 7.35-4.24 8.71 8.71 0 0 1 8.18-4.72 7.77 7.77 0 0 0 7.35-4.24A8.7 8.7 0 0 1 86 14.84a7.27 7.27 0 0 0 4.31-1 7.22 7.22 0 0 0 3-3.21A8.1 8.1 0 0 1 96.71 7zm1.74 33.19l.24-.43v1.85a7.72 7.72 0 0 1-2.82 2.6 8.1 8.1 0 0 1-4.79 1.15 7.27 7.27 0 0 0-4.31 1A6.84 6.84 0 0 0 84.09 49H83a8 8 0 0 1 3.3-3.4 8.06 8.06 0 0 1 4.79-1.15 7.77 7.77 0 0 0 7.35-4.24zM0 7V6a8.59 8.59 0 0 1 3.18-.41 7.23 7.23 0 0 0 4.31-1 7.22 7.22 0 0 0 3-3.21A13.39 13.39 0 0 1 11.35 0h1.21a9.17 9.17 0 0 0-1.2 1.77A8.09 8.09 0 0 1 8 5.33a8.08 8.08 0 0 1-4.83 1.15A7.45 7.45 0 0 0 0 7zm96.67 24.5a8.8 8.8 0 0 1 2-.87v1a8.08 8.08 0 0 0-1.55.7 7.22 7.22 0 0 0-3 3.21 8.7 8.7 0 0 1-8.18 4.72 7.77 7.77 0 0 0-7.35 4.24 8.1 8.1 0 0 1-3.43 3.5 8.33 8.33 0 0 1-2.46 1h-6.36a8.14 8.14 0 0 1 4.05-.76A7.77 7.77 0 0 0 77.74 44a8.71 8.71 0 0 1 8.18-4.72 7.29 7.29 0 0 0 4.31-1 7.22 7.22 0 0 0 3-3.21 8.1 8.1 0 0 1 3.44-3.57zm2-31v1a9.89 9.89 0 0 1-2.37.18 7.2 7.2 0 0 0-4.31 1A7.22 7.22 0 0 0 89 5.9a8.1 8.1 0 0 1-3.4 3.56 8.08 8.08 0 0 1-4.79 1.15 7.77 7.77 0 0 0-7.35 4.24A8.1 8.1 0 0 1 70 18.42a8.1 8.1 0 0 1-4.79 1.15 7.77 7.77 0 0 0-7.36 4.24 8.1 8.1 0 0 1-3.4 3.56 8.06 8.06 0 0 1-4.79 1.15 7.3 7.3 0 0 0-4.31 1 7.22 7.22 0 0 0-3 3.21 8.7 8.7 0 0 1-8.18 4.72 7.77 7.77 0 0 0-7.36 4.24 8.1 8.1 0 0 1-3.4 3.56 8.1 8.1 0 0 1-4.79 1.15 7.28 7.28 0 0 0-4.31 1 7.31 7.31 0 0 0-1.93 1.6H11.2a7.79 7.79 0 0 1 2.66-2.36 8.07 8.07 0 0 1 4.79-1.15 7.28 7.28 0 0 0 4.31-1 7.22 7.22 0 0 0 3-3.21 8.71 8.71 0 0 1 8.18-4.72 7.77 7.77 0 0 0 7.35-4.24 8.71 8.71 0 0 1 8.18-4.72 7.77 7.77 0 0 0 7.36-4.24 8.7 8.7 0 0 1 8.18-4.72 7.27 7.27 0 0 0 4.31-1 7.22 7.22 0 0 0 3-3.21 8.1 8.1 0 0 1 3.48-3.6 8.06 8.06 0 0 1 4.79-1.15 7.28 7.28 0 0 0 4.31-1 7.22 7.22 0 0 0 3-3.21 8.1 8.1 0 0 1 3.4-3.56A8.09 8.09 0 0 1 96.33.72a8.71 8.71 0 0 0 2.36-.21zM1 15.89a11.84 11.84 0 0 1-1 1.54v-1.7l.17-.3a8.1 8.1 0 0 1 3.4-3.56 8.09 8.09 0 0 1 4.79-1.15 7.26 7.26 0 0 0 4.31-1 7.22 7.22 0 0 0 3-3.21 8.1 8.1 0 0 1 3.4-3.56 8.12 8.12 0 0 1 4.79-1.15 7.27 7.27 0 0 0 4.31-1 8.66 8.66 0 0 0 1.1-.8h1.38a8.44 8.44 0 0 1-2 1.54 8.07 8.07 0 0 1-4.79 1.15 7.22 7.22 0 0 0-4.31 1 7.23 7.23 0 0 0-3 3.21 8.1 8.1 0 0 1-3.4 3.56 8.1 8.1 0 0 1-4.79 1.15 7.29 7.29 0 0 0-4.31 1A7.22 7.22 0 0 0 1 15.89zM2.79.17A8.08 8.08 0 0 1 0 1.21v-1A6.38 6.38 0 0 0 .94 0h2.12zm0 24.46a8.13 8.13 0 0 1-2.76 1v-1a7.33 7.33 0 0 0 2.29-.9 7.22 7.22 0 0 0 3-3.21A8.1 8.1 0 0 1 8.73 17a8.1 8.1 0 0 1 4.79-1.15 7.26 7.26 0 0 0 4.31-1 7.22 7.22 0 0 0 3-3.21 8.1 8.1 0 0 1 3.4-3.56 8.07 8.07 0 0 1 4.79-1.15 7.27 7.27 0 0 0 4.31-1 7.21 7.21 0 0 0 3-3.21A8.41 8.41 0 0 1 38.52 0h1.64a7.23 7.23 0 0 0-2.93 3.14 8.09 8.09 0 0 1-3.4 3.56A8.09 8.09 0 0 1 29 7.86a7.25 7.25 0 0 0-4.31 1 7.22 7.22 0 0 0-3 3.21 8.1 8.1 0 0 1-3.4 3.56 8.09 8.09 0 0 1-4.79 1.15 7.29 7.29 0 0 0-4.31 1 7.22 7.22 0 0 0-3 3.21 8.09 8.09 0 0 1-3.43 3.63zM9.16 42.3a7.22 7.22 0 0 0-3 3.21A8.11 8.11 0 0 1 2.81 49H.54a7.87 7.87 0 0 0 1.71-.75 7.23 7.23 0 0 0 3-3.21 8.1 8.1 0 0 1 3.4-3.56 8.1 8.1 0 0 1 4.79-1.15 7.29 7.29 0 0 0 4.31-1 7.22 7.22 0 0 0 3-3.21 8.1 8.1 0 0 1 3.4-3.56A8.09 8.09 0 0 1 29 31.38a7.77 7.77 0 0 0 7.36-4.24 8.71 8.71 0 0 1 8.18-4.72 7.77 7.77 0 0 0 7.35-4.24 8.7 8.7 0 0 1 8.18-4.72 7.26 7.26 0 0 0 4.31-1 7.22 7.22 0 0 0 3-3.21 8.09 8.09 0 0 1 3.4-3.56 8.08 8.08 0 0 1 4.79-1.15 7.25 7.25 0 0 0 4.31-1A7.22 7.22 0 0 0 83 .27l.14-.27h1.09c-.15.24-.29.48-.43.73a8.1 8.1 0 0 1-3.4 3.56 8.09 8.09 0 0 1-4.79 1.15 7.77 7.77 0 0 0-7.36 4.24 8.09 8.09 0 0 1-3.39 3.56 8.08 8.08 0 0 1-4.79 1.15 7.77 7.77 0 0 0-7.36 4.24 8.09 8.09 0 0 1-3.4 3.56 8.1 8.1 0 0 1-4.79 1.15 7.77 7.77 0 0 0-7.36 4.24 8.1 8.1 0 0 1-3.4 3.56A8.1 8.1 0 0 1 29 32.32a7.3 7.3 0 0 0-4.31 1 7.22 7.22 0 0 0-3 3.21 8.09 8.09 0 0 1-3.4 3.56 8.09 8.09 0 0 1-4.79 1.15 7.26 7.26 0 0 0-4.34 1.06zm-8.21-2A12.12 12.12 0 0 1 0 41.84v-1.72l.13-.23a8.1 8.1 0 0 1 3.4-3.56 8.1 8.1 0 0 1 4.79-1.15 7.26 7.26 0 0 0 4.31-1 7.22 7.22 0 0 0 3-3.21 8.1 8.1 0 0 1 3.4-3.56 8.1 8.1 0 0 1 4.79-1.15 7.26 7.26 0 0 0 4.31-1 7.22 7.22 0 0 0 3-3.21 8.7 8.7 0 0 1 8.18-4.72 7.26 7.26 0 0 0 4.31-1 7.21 7.21 0 0 0 3-3.21 8.1 8.1 0 0 1 3.4-3.56 8.08 8.08 0 0 1 4.9-1.26 7.28 7.28 0 0 0 4.31-1 7.22 7.22 0 0 0 3-3.21A8.1 8.1 0 0 1 65.67.5a9.86 9.86 0 0 1 1-.5h6.56a9 9 0 0 1-2.78.28 7.26 7.26 0 0 0-4.31 1 7.22 7.22 0 0 0-3 3.21 8.1 8.1 0 0 1-3.4 3.56 8.07 8.07 0 0 1-4.79 1.15 7.77 7.77 0 0 0-7.35 4.24A8.1 8.1 0 0 1 44.16 17a8.07 8.07 0 0 1-4.79 1.15A7.77 7.77 0 0 0 32 22.43 8.1 8.1 0 0 1 28.63 26a8.08 8.08 0 0 1-4.79 1.15 7.3 7.3 0 0 0-4.31 1 7.22 7.22 0 0 0-3 3.21A8.1 8.1 0 0 1 13.09 35a8.1 8.1 0 0 1-4.79 1.11 7.24 7.24 0 0 0-4.31 1 7.22 7.22 0 0 0-3.04 3.24zm2.19-9.41A7.62 7.62 0 0 0 0 31.4v-1a8.61 8.61 0 0 1 3.15-.4 7.28 7.28 0 0 0 4.31-1 7.22 7.22 0 0 0 3-3.21 8.1 8.1 0 0 1 3.4-3.56A8.08 8.08 0 0 1 18.68 21 7.22 7.22 0 0 0 23 20a7.22 7.22 0 0 0 3-3.21 8.1 8.1 0 0 1 3.4-3.56 8.06 8.06 0 0 1 4.79-1.15 7.26 7.26 0 0 0 4.31-1 7.22 7.22 0 0 0 3-3.21A8.1 8.1 0 0 1 45 4.29a8.05 8.05 0 0 1 4.79-1.15 7.27 7.27 0 0 0 4.31-1A6.89 6.89 0 0 0 56.44 0h1.11a7.72 7.72 0 0 1-3 2.92 8.1 8.1 0 0 1-4.79 1.15 7.26 7.26 0 0 0-4.31 1 7.22 7.22 0 0 0-3 3.21A8.1 8.1 0 0 1 39 11.87 8.06 8.06 0 0 1 34.21 13a7.77 7.77 0 0 0-7.36 4.24 8.09 8.09 0 0 1-3.4 3.56 8.08 8.08 0 0 1-4.78 1.2 7.2 7.2 0 0 0-4.31 1 7.23 7.23 0 0 0-3 3.21 8.1 8.1 0 0 1-3.4 3.56 8.1 8.1 0 0 1-4.82 1.17z" fill="#5bc4f1"/></pattern><pattern id="k" data-name="gravel" width="79.58" height="61.61" patternUnits="userSpaceOnUse" viewBox="0 0 79.58 61.61"><path fill="none" d="M0 0h79.58v61.61H0z"/><g clip-path="url(#e)"><path d="M33.71 19.35h2a1.25 1.25 0 0 1-2 0zm29 12h2a1.25 1.25 0 0 1-2 0zm-42.62-18h2a1.25 1.25 0 0 1-2 0zM8.58 1.73h4.15a2.62 2.62 0 0 1-4.15 0zm-4.3 33.39h4.14a2.62 2.62 0 0 1-4.15 0zm36.23 8.6h1.76a.88.88 0 0 1-1.76 0zm34.92-5.81a2.62 2.62 0 0 1-4.15 0zm-25.1 8.47h3.13a1.56 1.56 0 1 1-3.12 0z" fill="#e74e0f"/></g></pattern><symbol id="l" data-name="MAIZE" viewBox="0 0 13.02 60.83"><rect x="3.48" y="24.2" width="5.76" height="11.01" rx="2.85" ry="2.85" fill="#eac596"/><path d="M8.27 27.26a1.92 1.92 0 0 1-1.92 1.9 1.92 1.92 0 0 1-1.92-1.9V8.72C4.44 7.67 5.3 0 6.35 0 7.4 0 8.27 7.67 8.27 8.72z" fill="#a32523"/><path d="M6.35 0C7.4 0 8.27 7.67 8.27 8.72v18.54a1.92 1.92 0 0 1-1.92 1.9" style="mix-blend-mode:multiply" fill="#a32523"/><path d="M6.35 51h1.13c.64 0 .71 0 1.83-4.42S13 32.56 13 32.56l-6.34 15M6.35 51h-.81c-.64 0-.71 0-1.83-4.42S0 32.56 0 32.56l6.19 15" fill="#a32523"/><path fill="none" stroke="#050404" stroke-miterlimit="10" d="M6.35 31.34v29.49"/><path d="M10.46 2.58L7.31 21.41c0 .29-.25.89-.55.91-.59 0-.76-.68-.76-1L2.32 2.58h-.48S3.48 16.86 3.48 21.8V30c0 1.48 1.51 2.28 3 2.28C8 32.3 9.23 31.5 9.23 30v-8.2c0-4.95 1.87-19.23 1.87-19.23z" fill="#e74e0f"/><path d="M9.23 28.93v-4a2.67 2.67 0 0 1-2.74 2.59 2.89 2.89 0 0 1-3-2.59V32.31a2.86 2.86 0 0 0 2.85 2.85h.06a2.86 2.86 0 0 0 2.85-2.85v-3.37z" fill="#eac596"/><path d="M9.23 24.91a2.66 2.66 0 0 1-2.72 2.59v7.7a2.85 2.85 0 0 0 2.74-2.84v-3.42z" style="mix-blend-mode:multiply" fill="#eac596"/></symbol><symbol id="m" data-name="BEE" viewBox="0 0 11.8 11.8"><circle cx="2.4" cy="9.4" r="2.4" transform="rotate(-45 2.397 9.407)" fill="#ecc697"/><path fill="#ecc697" d="M.12 8.65l1.87-4.17 2.34 3.47"/><circle cx="9.4" cy="2.4" r="2.4" transform="rotate(-45 9.402 2.395)" fill="#ecc697"/><path fill="#ecc697" d="M8.65.12L4.48 1.99l3.47 2.34"/><circle cx="3.59" cy="3.42" r="1.92" transform="rotate(-.17 3.365 3.375)"/><circle cx="6.78" cy="6.61" r="2.86" transform="rotate(-.17 6.73 6.75)"/><g clip-path="url(#f)" fill="#e74e0f"><path d="M8.14 2.84L3.2 7.78l-.83-.82 4.94-4.94.83.82zM9.78 4.49L4.84 9.43l-.82-.82 4.94-4.94.82.82zM11.43 6.14l-4.94 4.94-.82-.83 4.94-4.94.82.83z"/></g><path d="M2.86 2.26l-.58.58a.45.45 0 0 1-.63 0 .45.45 0 0 1 0-.63l.58-.58a.45.45 0 0 1 .63 0 .45.45 0 0 1 0 .63z"/><path fill="none" stroke="#000" stroke-miterlimit="10" stroke-width=".205" d="M2.62 1.87V.59M.68 2.52h1.29"/></symbol><symbol id="n" data-name="SHEEP" viewBox="0 0 25.64 15.98"><path d="M10.79 15.98v-5.24l1.7-2.27V5.21l-3.21-.35v11.12h1.51z"/><circle cx="21.68" cy="3.65" r="3.65" fill="#fff"/><path d="M22.44 15.98h1.02l.2-.67V9.58l-.9-1.86V5.64l-4.01 1.15v.88l3.69 3.02v5.29z"/><path d="M25 5.21a11.74 11.74 0 0 0-1.13 4.13h-13l8.63-3.83" fill="#fff"/><path fill="#fff" d="M24.42 15.98h1.01l.21-.53V9.58l-.9-1.86V5.64l-4.01-1.99v4.02l3.69 3.02v5.29zM10.95 15.98l.29-.7v-4.54l1.71-2.27.55-3.26-3.22-.35v11.12h.67z"/><path d="M8.19 5.61c.4 1.84.69 3.14 2.68 3.34h10.9V0h-11c-3 0-4.1 2.35-6.38 5.43s-2.63 3.7-2.63 3.7l3.63 3 6.78-5.57" fill="#fff"/><path d="M4.72 12.58L1.8 10.93.62 13v.07a2.17 2.17 0 0 1-.3-2.53A23 23 0 0 1 2 8.73l3.38 3.34-.68.5" fill="#fff"/><path d="M3.17 15.08a3.13 3.13 0 0 1 .52-1.5l.31-.52a1 1 0 0 1 .15-.2 1.1 1.1 0 0 1 .6-.29L1.8 10.93.62 13l1 2.53a.51.51 0 0 0 .55.31h.71a.5.5 0 0 0 .29-.76zM2.08 9.23a.53.53 0 1 1 .78.7"/><circle cx="9.49" cy="8.12" r="3.02" fill="#fff"/><circle cx="3.55" cy="11.75" r="1.53"/><path d="M1.74 15.54a.28.28 0 1 1 .39-.39" fill="#fff"/><path d="M.62 13l1.23-2.2a1.71 1.71 0 0 1 2.51-.39 1.43 1.43 0 0 1 .56 1.22l-1 .43"/><circle cx="2.84" cy="15.3" r=".57"/></symbol><symbol id="o" data-name="COW" viewBox="0 0 64.67 34.21"><path d="M57.08 18.64c-2.39 2.07-.06 5.82-.06 5.82v9.76h-1.9v-6.58l-8-8.36"/><path d="M60.51 15.53c-2.39 2.07 2.21 8.92 2.21 8.92v9.76h-1.9v-6.57L53 19.27" fill="#e74e0f"/><circle cx="50.13" cy="18.24" r="8.05" fill="#ecc697"/><path d="M59.81 16.57c-2.39 2.07 2.91 7.88 2.91 7.88v9.76h-1.9v-6.57L53 19.27"/><path d="M5 19l6-10.74 2-4A8.45 8.45 0 0 1 19.77 0h39.51a5.59 5.59 0 0 1 5.34 5.62v.17a5.27 5.27 0 0 1-.4 1.81l-2.12 9.52 1.57 5.25v11.84h-2.85V26a20.12 20.12 0 0 0-.74-5.12H31.24c-1.09 0-2.73.87-3.68.67v12.66h-1.9v-6.57c0-3.25-1-4.65-2.85-5.39v12h-2.32s-.1-3.77 0-7.83S18 21.5 16.45 23L5 34.21H0V19z" fill="#fff"/><path d="M58.17 0h1.11a5.59 5.59 0 0 1 5.34 5.62v.17a5.27 5.27 0 0 1-.4 1.81l-1.47 6.67-3.34-3.68c-.46-.46-.51-.31-.51.35v1.67c0 .66-1.21.72-1.87.72h-1c-.66 0-1-.07-1-.72v-1.7a2.08 2.08 0 0 0-1.21-1.66l-6-2.41a2.29 2.29 0 0 1-1.38-1.66V0zM40 4.68a2.67 2.67 0 0 1 1.91 1l1.54 2.08a4.12 4.12 0 0 1 .71 2.08 1.1 1.1 0 0 1-1.08 1.12 3.25 3.25 0 0 0-1.93.83l-1.25 1a3.2 3.2 0 0 1-2.05.6h-3a3.19 3.19 0 0 1-2.05-.6l-1.57-1.46a2.88 2.88 0 0 1-.8-1.91V5.89a1.15 1.15 0 0 1 1.13-1.2zM43.52 17.86l1-.36a1.72 1.72 0 0 0 1.08-1.57V15c0-.66.27-1.67.92-1.67h5c.66 0 .71 1 .71 1.67v.1a3.52 3.52 0 0 0 1.11 2l.65.4a3.5 3.5 0 0 1 1.09 2v1.4H42.77v-1.47c0-.65.12-1.36.75-1.57zM8.88 12l1.8 2a3.39 3.39 0 0 1 .72 2.11v1a4.45 4.45 0 0 0 .83 2.16l.48.58a1.74 1.74 0 0 1 0 1.93l-4.3 5.8a2.6 2.6 0 0 1-1.89.92H4.24c-.66 0-1.39-.46-1.39-1.11v-3.1c0-.66-.35-1.48-1-1.48H0V19h5zM15.21 14v-1.18a3.22 3.22 0 0 1 .74-2l.27-.22a3.38 3.38 0 0 0 .89-2V5.89a1.07 1.07 0 0 1 1-1.19 3 3 0 0 1 1.89.84l2.3 2.75a3.81 3.81 0 0 0 2 1.22h.48c.66 0 .87-.21.87.45v2.87a1.74 1.74 0 0 0 1.52 1.44h2.31a3.27 3.27 0 0 1 2.05.71l1.52 1.14a3.5 3.5 0 0 1 1.15 2v2.83h-3c-1.09 0-2.73.87-3.68.67v7.88h-1.9v-1.86c0-3.25-1-4.65-2.85-5.39v3.48c0-.66-.71-1-1.36-1h-1.05c-.22-1-.41-2-1.36-2.4v-2a3.22 3.22 0 0 0-.83-2L15.94 16a3.13 3.13 0 0 1-.73-2z"/><circle cx="25.29" cy="4.3" r="1.23"/></symbol><symbol id="p" data-name="BUTTERFLY" viewBox="0 0 10.39 10.1"><path d="M5.67 5.36c-1.9-1.27-2.54-1.65-3.78-1.09S0 5.17 0 5.17s2 1.29 2.52 1.58a2 2 0 0 0 1.93-.18c.69-.38 1.44-.71 1.44-.71z" fill="#e74e0f"/><path d="M4.08 8.51C4.14 7.7 5 5.7 5.77 5.76S7.09 7.92 7 8.74a1.48 1.48 0 1 1-2.94-.22" fill="#b4382d"/><path d="M6 5.12c-.24-2.27-.28-3 .79-3.86S8.42 0 8.42 0s.21 2.38.23 3a2 2 0 0 1-1 1.63c-.66.43-1.3.95-1.3.95z" fill="#e74e0f"/><path d="M9.49 5.17c-.75-.32-2.9-.53-3.22.22s1.27 2.28 2.06 2.49a1.53 1.53 0 0 0 1.94-.77 1.47 1.47 0 0 0-.77-1.94" fill="#b4382d"/><path d="M7.5 8.05a.39.39 0 0 1-.5-.13L5.06 4.73a.38.38 0 1 1 .66-.39l1.91 3.18a.38.38 0 0 1-.13.53" fill="#272727"/></symbol></defs><title>Slide 1</title><g style="isolation:isolate"><path fill="#c4c4c4" d="M.8 271.49v54.3l329.18 190.03v-54.3L.8 271.49z"/><path fill="#ecc697" d="M330.07 81.36L659.33 271.5 330.08 461.58.8 271.49 330.07 81.36z"/><path fill="gray" d="M659.16 271.5v54.3L329.98 515.83v-54.3L659.16 271.5z"/><path fill="url(#g)" d="M.8 271.49v54.3l329.18 190.03v-54.3L.8 271.49zM659.16 271.5v54.3L329.98 515.83v-54.3L659.16 271.5z"/><g data-name="Land (fade)"><path fill="#f1956f" d="M330.07 81.36L659.33 271.5 330.08 461.58.8 271.49 330.07 81.36z"/><path fill="#ec713f" d="M330.07 81.36L659.33 271.5 330.08 461.58.8 271.49 330.07 81.36z"/><path d="M343.58 453.79c-4.27-3.34-8.66-7-13.13-11A161.52 161.52 0 0 1 302.16 410a108.79 108.79 0 0 1-11.1-22.65 90.31 90.31 0 0 1-5.06-26.74 88.15 88.15 0 0 1 3.57-27.55 104.92 104.92 0 0 1 10.92-24.59 138.39 138.39 0 0 1 15.42-20.74q4.23-4.74 8.75-9.09c1.51-1.46 3-2.85 4.59-4.29.79-.71 1.64-1.49 2.33-2.07l2.21-1.92c2.76-2.35 5.43-4.76 8-7.21s5.1-5 7.5-7.51a104.28 104.28 0 0 0 12.45-15.93c3.35-5.47 5.8-11.09 6.6-16.44a25.55 25.55 0 0 0-2.23-15.39 44.22 44.22 0 0 0-10.94-13.64 96.41 96.41 0 0 0-15.34-10.75 177.46 177.46 0 0 0-16.51-8.34c-2.76-1.25-5.43-2.31-8.34-3.61s-5.6-2.59-8.28-4a76.73 76.73 0 0 1-11.08-7c-.47.26-.93.53-1.41.85 0-.29 0-.6.07-.91v-.27c0-.21.06-.43.09-.66-.82-.68-1.62-1.38-2.39-2.13a27.29 27.29 0 0 1-3-3.4 19.21 19.21 0 0 1-1.47-2.28h-77L2 272.17l328.08 189.41.19-.11-.12-.19 1.16-.41z" fill="#e74e0f"/><path d="M343.58 453.79c-4.27-3.34-8.66-7-13.13-11A161.52 161.52 0 0 1 302.16 410a108.79 108.79 0 0 1-11.1-22.65 90.31 90.31 0 0 1-5.06-26.74 88.15 88.15 0 0 1 3.57-27.55 104.92 104.92 0 0 1 10.92-24.59 138.39 138.39 0 0 1 15.42-20.74q4.23-4.74 8.75-9.09c1.51-1.46 3-2.85 4.59-4.29.79-.71 1.64-1.49 2.33-2.07l2.21-1.92c2.76-2.35 5.43-4.76 8-7.21s5.1-5 7.5-7.51a104.28 104.28 0 0 0 12.45-15.93c3.35-5.47 5.8-11.09 6.6-16.44a25.55 25.55 0 0 0-2.23-15.39 44.22 44.22 0 0 0-10.94-13.64 96.41 96.41 0 0 0-15.34-10.75 177.46 177.46 0 0 0-16.51-8.34c-2.76-1.25-5.43-2.31-8.34-3.61s-5.6-2.59-8.28-4a76.73 76.73 0 0 1-11.08-7c-.47.26-.93.53-1.41.85 0-.29 0-.6.07-.91v-.27c0-.21.06-.43.09-.66-.82-.68-1.62-1.38-2.39-2.13a27.29 27.29 0 0 1-3-3.4 19.21 19.21 0 0 1-1.47-2.28h-77L2 272.17l328.08 189.41.19-.11-.12-.19 1.16-.41z" fill="#e74e0f"/><path d="M343.58 453.79c-4.27-3.34-8.66-7-13.13-11A161.52 161.52 0 0 1 302.16 410a108.79 108.79 0 0 1-11.1-22.65 90.31 90.31 0 0 1-5.06-26.74 88.15 88.15 0 0 1 3.57-27.55 104.92 104.92 0 0 1 10.92-24.59 138.39 138.39 0 0 1 15.42-20.74q4.23-4.74 8.75-9.09c1.51-1.46 3-2.85 4.59-4.29.79-.71 1.64-1.49 2.33-2.07l2.21-1.92c2.76-2.35 5.43-4.76 8-7.21s5.1-5 7.5-7.51a104.28 104.28 0 0 0 12.45-15.93c3.35-5.47 5.8-11.09 6.6-16.44a25.55 25.55 0 0 0-2.23-15.39 44.22 44.22 0 0 0-10.94-13.64 96.41 96.41 0 0 0-15.34-10.75 177.46 177.46 0 0 0-16.51-8.34c-2.76-1.25-5.43-2.31-8.34-3.61s-5.6-2.59-8.28-4a76.73 76.73 0 0 1-11.08-7c-.47.26-.93.53-1.41.85 0-.29 0-.6.07-.91v-.27c0-.21.06-.43.09-.66-.82-.68-1.62-1.38-2.39-2.13a27.29 27.29 0 0 1-3-3.4 19.21 19.21 0 0 1-1.47-2.28h-77L2 272.17l328.08 189.41.19-.11-.12-.19 1.16-.41z" fill="url(#h)"/><path fill="#ec713f" d="M343.57 453.79l-6.09 3.52-7.63 4.14-7.29-4.21 7.52 4.34 13.49-7.79z"/><path fill="#e74e0f" d="M313.3 336.21h233.93l112.1-64.71-93.83-54.18H373.03L313.3 336.21z"/><path fill="url(#i)" d="M313.3 336.21h233.93l112.1-64.71-93.83-54.18H377.17L313.3 336.21z"/><path d="M344 303a134.75 134.75 0 0 0-3.43 4.63 105 105 0 0 0-9.92 17.07 75.91 75.91 0 0 0-3.41 8.95c1.65 16.1 23.17 44.85 99.51 72.11l-37.25 21.52L604.77 303z" fill="#ecc697"/><path fill="#f1956f" d="M450.78 151.07L330.07 81.36l-120.72 69.71h241.43z"/><path d="M298.86 196.29l-8-4.27c-14.57-7.75-14.17-19.64.87-26.41l4.94-2.22c.63-.29 1.2-.56 1.74-.84a48.26 48.26 0 0 1-6.32-5.09 27.29 27.29 0 0 1-3-3.4 18.75 18.75 0 0 1-1.85-3h-77.89L.79 271.49l109.53 63.23L299.5 225.63c14.21-8.39 13.92-21.63-.64-29.34z" fill="#ecc697"/><path fill="#f1956f" d="M148.69 186.09L.8 271.49l109.52 63.23 148-85.34-109.63-63.29z"/><path fill="#f1956f" d="M148.69 186.09L.8 271.49l109.52 63.23 148-85.34-109.63-63.29z"/><path fill="#ec713f" d="M66.18 233.73L175.74 297l31.61-18.23-109.57-63.28-31.6 18.24zM258.32 249.38l-109.63-63.29-22.49 12.99 109.59 63.28 22.53-12.98zM35.41 251.5L.8 271.49l109.52 63.23 34.62-19.96L35.41 251.5z"/><path d="M402.19 145.63l-12.59-26.06-7-14.42-1.76-3.64-14.51-29.86h-10l-13-28.43h-10l-14-30h-10l-20.64 45.66-30 66.71h60.22l-.28.57h.57l-9.3 19.47z" fill="#f1956f"/><path fill="#ecc697" d="M321.92 54.92l11.66-11.66h-.34l-14.02-30.03h-10.01l-20.39 45.36h7.43l4.07-3.67h21.6zM366.33 71.65h-10l-9 19.56h-10.6L325.95 112h12l3.51-4h9l4.32-5.92.19.4c4 11.54 13.29 19.81 24.33 19.81a20.33 20.33 0 0 0 10.28-2.76z"/><path fill="#ec713f" d="M327.04 111.18L337.5 91h10.22l8.73-18.94-8.79-19.19-44.69 76.46 17.53-4.44 6.54-13.71z"/><path d="M384.88 420.23A213.68 213.68 0 0 1 361 405.55a117.27 117.27 0 0 1-22.84-20.79c-6.58-8-11.39-17.09-13-27.1a49.7 49.7 0 0 1 .17-15.89 68.9 68.9 0 0 1 5.36-17.07 105 105 0 0 1 9.92-17.07q3-4.18 6.29-8.23c1.1-1.34 2.27-2.71 3.39-4 .57-.64 1.07-1.23 1.76-2l1.92-2.08a221.25 221.25 0 0 0 15.88-18.75A128.66 128.66 0 0 0 383.13 251a80 80 0 0 0 4.69-12.4A57.5 57.5 0 0 0 390 225a46.06 46.06 0 0 0-7.07-26.7 55.14 55.14 0 0 0-8.11-10 71.73 71.73 0 0 0-9.19-7.58 112.28 112.28 0 0 0-19.1-10.54 191.25 191.25 0 0 0-18.66-7c-3-1-6.12-1.91-8.83-2.66s-5.46-1.67-8-2.6a55.71 55.71 0 0 1-13.58-6.73 15.41 15.41 0 0 1-4.22-4.32 5.85 5.85 0 0 1-.79-4.51 11 11 0 0 1 2.67-4.65 26.56 26.56 0 0 1 4.35-3.82 51.89 51.89 0 0 1 9.39-5.19 69.71 69.71 0 0 1 12.18-4l.51-1.15a71.19 71.19 0 0 0-13.68 2.45 55.46 55.46 0 0 0-10.73 4.16 31.39 31.39 0 0 0-5.7 3.78 16.77 16.77 0 0 0-4.88 6.45 12.13 12.13 0 0 0-.87 4.72 13.45 13.45 0 0 0 1 4.82 18.14 18.14 0 0 0 2.34 4.09 27.29 27.29 0 0 0 3 3.4c4.3 4.15 9.35 7.23 14.69 10.08 2.68 1.41 5.44 2.73 8.28 4s5.57 2.35 8.34 3.61a177.46 177.46 0 0 1 16.51 8.34 96.41 96.41 0 0 1 15.34 10.75 44.22 44.22 0 0 1 10.94 13.64 25.55 25.55 0 0 1 2.23 15.39c-.8 5.35-3.25 11-6.6 16.44a104.28 104.28 0 0 1-12.45 15.93c-2.4 2.55-4.91 5.05-7.5 7.51s-5.29 4.86-8 7.21l-2.21 1.92c-.69.59-1.54 1.36-2.33 2.07a190.04 190.04 0 0 0-4.59 4.29q-4.51 4.36-8.75 9.09a138.39 138.39 0 0 0-15.42 20.74 104.92 104.92 0 0 0-10.92 24.59 88.15 88.15 0 0 0-3.59 27.59 90.31 90.31 0 0 0 5.07 26.77A108.79 108.79 0 0 0 302.16 410a161.52 161.52 0 0 0 28.3 32.76c4.46 4 8.85 7.67 13.12 11l50.24-29c-2.82-1.37-5.82-2.88-8.94-4.53z" fill="#16488f"/><path fill="#16488f" d="M330.08 461.58l-.1-.06v54.3l.1.06L659.33 325.8v-54.3L330.08 461.58z"/><path fill="url(#j)" d="M330.08 461.58l-.1-.06v54.3l.1.06L659.33 325.8v-54.3L330.08 461.58z"/><path d="M344 303a134.75 134.75 0 0 0-3.43 4.63 105 105 0 0 0-9.92 17.07 75.91 75.91 0 0 0-3.41 8.95c1.65 16.1 23.17 44.85 99.51 72.11l-37.25 21.52L604.77 303z" fill="url(#k)"/><path d="M524.41 197.84h-1.31a3.41 3.41 0 0 0-6.14-2 3.39 3.39 0 0 0-5.45 0 3.39 3.39 0 0 0-5.45 0 3.39 3.39 0 0 0-5.45 0 3.39 3.39 0 0 0-5.45 0 3.39 3.39 0 0 0-5.45 0 3.39 3.39 0 0 0-5.45 0 3.39 3.39 0 0 0-5.45 0 3.39 3.39 0 0 0-5.45 0 3.39 3.39 0 0 0-5.45 0 3.39 3.39 0 0 0-5.45 0 3.39 3.39 0 0 0-5.45 0 3.41 3.41 0 0 0-6.14 2h-1.2A10.23 10.23 0 0 0 439.5 208h95.11a10.23 10.23 0 0 0-10.2-10.16z" fill="#ecc697"/><path d="M551 217.32a10.23 10.23 0 0 0-10.2-9.32h-1.31a3.41 3.41 0 0 0-6.14-2 3.39 3.39 0 0 0-5.45 0 3.39 3.39 0 0 0-5.45 0 3.39 3.39 0 0 0-5.45 0 3.39 3.39 0 0 0-5.45 0 3.39 3.39 0 0 0-5.45 0 3.39 3.39 0 0 0-5.45 0 3.39 3.39 0 0 0-5.45 0 3.39 3.39 0 0 0-5.45 0 3.39 3.39 0 0 0-5.45 0 3.39 3.39 0 0 0-5.43 0 3.4 3.4 0 0 0-2.71-1.35 3.4 3.4 0 0 0-2.71 1.35 3.4 3.4 0 0 0-2.71-1.35 3.4 3.4 0 0 0-2.71 1.35 3.39 3.39 0 0 0-5.43 0 3.39 3.39 0 0 0-5.45 0 3.39 3.39 0 0 0-5.45 0 3.39 3.39 0 0 0-5.45 0 3.4 3.4 0 0 0-2.24-1.32 8.5 8.5 0 0 0-5-.68 3.87 3.87 0 0 0-5.46-1.45 12 12 0 0 0-20 0 3.88 3.88 0 0 0-5.7 2 8.74 8.74 0 0 0-11.72 6h-.27a3.92 3.92 0 0 0-3.84 3.15 5.85 5.85 0 0 0-4.6 3.72z" fill="#a32523"/><path d="M413.89 217.32H551a10.23 10.23 0 0 0-10.2-9.32h-1.31a3.41 3.41 0 0 0-6.14-2 3.47 3.47 0 0 0-.91-.82 12.08 12.08 0 0 0-4.35 3.91 3.87 3.87 0 0 0-5.46 1.45 8.5 8.5 0 0 0-5 .68 3.4 3.4 0 0 0-2.24 1.32 3.39 3.39 0 0 0-5.45 0 3.39 3.39 0 0 0-5.45 0 3.39 3.39 0 0 0-5.45 0 3.39 3.39 0 0 0-5.43 0 3.4 3.4 0 0 0-2.71-1.35 3.4 3.4 0 0 0-2.71 1.35 3.4 3.4 0 0 0-2.71-1.35 3.4 3.4 0 0 0-2.71 1.35 3.39 3.39 0 0 0-5.43 0 3.39 3.39 0 0 0-5.45 0 3.39 3.39 0 0 0-5.45 0 3.39 3.39 0 0 0-5.45 0 3.39 3.39 0 0 0-5.45 0 3.39 3.39 0 0 0-5.45 0 3.39 3.39 0 0 0-5.45 0 3.39 3.39 0 0 0-5.45 0 3.39 3.39 0 0 0-5.45 0 3.39 3.39 0 0 0-5.45 0 3.41 3.41 0 0 0-6.14 2h-1.31a10.15 10.15 0 0 0-6.95 2.78z" style="mix-blend-mode:multiply" fill="#a32523" opacity=".42"/></g><g data-name="Move 1"><use width="13.02" height="60.83" transform="matrix(.85 0 0 .85 100.94 266.52)" xlink:href="#l"/><use width="13.02" height="60.83" transform="matrix(.85 0 0 .85 55.33 205.22)" xlink:href="#l"/><use width="13.02" height="60.83" transform="matrix(.85 0 0 .85 131.36 214.21)" xlink:href="#l"/><use width="13.02" height="60.83" transform="matrix(.85 0 0 .85 176.84 205.5)" xlink:href="#l"/><path fill="none" stroke="#000" stroke-miterlimit="10" stroke-width="2" d="M227.99 74.91V142M216.36 76.52v5.62c0 3.09 2.71 9 6 13.18l6 7.57M227.59 67.69a11.63 11.63 0 0 1 0 23.27M213.36 73.51a11.63 11.63 0 1 1-23.27 0"/><path d="M205.15 68.73v8c0 4.4 2.64 8 5.87 8h5.87M240.06 86.1v6.62c0 3.64-2.67 8.78-5.93 11.42l-5.93 4.8" fill="none" stroke="#000" stroke-miterlimit="10" stroke-width="2"/><path d="M253.71 65.71A6 6 0 0 0 248 58.6a20.45 20.45 0 0 0-19.22-13.5h-.6s-.46 0-1.24.08a20.3 20.3 0 0 0-8.8 2.92l-.25.15a16.653 16.653 0 0 0-1.85 1.32l-.29.22c-.39.32-.78.67-1.15 1l-.13.13-.26.26c-4.65 4.65-5.76 7.35-12.91 7.35h-1.09a6 6 0 0 0-6 5.18 5.17 5.17 0 0 0-6.18 5h-1.89a6.85 6.85 0 0 0-6.85 6.85h21.15a6 6 0 0 0 4.56 2.09h17.65a6.85 6.85 0 0 0 6.35 4.11h11.29a6.85 6.85 0 0 0 6.28-4.11h6.07a6 6 0 0 0 1.12-11.94zm-13.65 24.76a8.41 8.41 0 0 0 7.73-5.1h-15.46a8.41 8.41 0 0 0 7.73 5.1z" fill="#e74e0f"/><path d="M237.24 58.59H248a20.27 20.27 0 0 0-21.75-13.31 20.5 20.5 0 0 1 10.99 13.31z" style="mix-blend-mode:multiply" fill="#a32523"/></g><g data-name="Move 2"><path fill="#070f12" d="M392.29 143.73h4.09v28.32h-4.09z"/><path fill="#e74e0f" d="M409.95 134.77h4.09v28.32h-4.09zM385.35 155.71h4.72v7.08h-4.72z"/><path fill="#070f12" d="M384.93 155.71h5.56v1.2h-5.56zM391.56 139.49h5.56v1.2h-5.56zM391.56 141.65h5.56v1.2h-5.56zM409.21 139.27h5.56v1.2h-5.56zM409.21 141.43h5.56v1.2h-5.56zM418.6 128.95h4.09v28.32h-4.09z"/><path fill="#e74e0f" d="M417.86 134.23h5.56v1.2h-5.56zM417.86 136.39h5.56v1.2h-5.56z"/><path fill="#070f12" d="M475.35 144.75l-9.5-1.56 1.92-28.32h4.1l3.48 29.88z"/><path fill="#e74e0f" d="M398.41 155.71h4.72v7.08h-4.72z"/><path fill="#070f12" d="M397.99 155.71h5.56v1.2h-5.56z"/><path fill="#929292" d="M383.41 159.8h21.71v24.89h-21.71z"/><path fill="#070f12" d="M391.78 185.12H373.8v-1.94h17.98z"/><path fill="#070f12" d="M405.12 185.13h-21.71v-.48l21.71-24.85v25.33zM509.41 152l-40.03-9.9-25.62.13-8.58 8.8-4.87 1.39V185h41v-33h38.1z"/><path fill="#929292" d="M509.31 155.72v-3.32l.1-.4h-38.1v33h38v-29.28z"/><path fill="#fff" d="M444.81 142.31l-39.5 10.11V185h79v-32.58l-39.5-10.11z"/><path fill="#070f12" d="M410.45 160.11h3.17v8.06h-3.17zM418.32 160.11h3.17v8.06h-3.17zM426.19 160.11h3.17v8.06h-3.17zM410.45 171.75h3.17v8.06h-3.17zM418.32 171.75h3.17v8.06h-3.17zM426.19 171.75h3.17v8.06h-3.17z"/><path d="M401.31 168.5h-17.9a4.76 4.76 0 0 0-4.61 4.93V185" fill="none" stroke="#070f12" stroke-miterlimit="10"/><path fill="#070f12" d="M451.36 160.17h11.46v19.68h-11.46zM467.85 160.17h11.46v19.68h-11.46z"/><path fill="#fff" d="M441.07 168.29h25.34v3.46h-25.34z"/><path fill="none" stroke="#000" stroke-miterlimit="10" stroke-width="2" d="M162.48 109.8v77.1M150.85 111.41V117c0 3.09 2.71 9 6 13.18l6 7.57M162.08 102.58a11.63 11.63 0 0 1 0 23.27"/><path d="M188.2 100.6a6 6 0 0 0-5.68-7.11A20.45 20.45 0 0 0 163.3 80h-1.47a20.26 20.26 0 0 0-9.91 3.43 18.78 18.78 0 0 0-2.82 2.26c-5 4.89-5.94 7.74-13.3 7.74h-1.09a6 6 0 0 0-6 5.18 5.17 5.17 0 0 0-6.18 5h-1.89a6.85 6.85 0 0 0-6.85 6.85H135a6 6 0 0 0 4.54 2.07h17.65a6.85 6.85 0 0 0 6.28 4.11h11.29a6.85 6.85 0 0 0 6.28-4.11h6.07a6 6 0 0 0 1.12-11.94z" fill="#ec713f"/></g><g data-name="Move 3"><use width="11.8" height="11.8" transform="translate(82.57 184.34)" xlink:href="#m"/><use width="13.02" height="60.83" transform="matrix(.85 0 0 .85 9.44 214.39)" xlink:href="#l"/><use width="13.02" height="60.83" transform="matrix(.85 0 0 .85 40.12 231.38)" xlink:href="#l"/><use width="13.02" height="60.83" transform="matrix(.85 0 0 .85 223.34 197.45)" xlink:href="#l"/><use width="13.02" height="60.83" transform="matrix(.85 0 0 .85 116.2 170.62)" xlink:href="#l"/><path d="M163.3 80h-1.19a20.5 20.5 0 0 1 10.8 13.22h9.51A20.44 20.44 0 0 0 163.3 80z" fill="#e74e0f"/><path fill="none" stroke="#000" stroke-miterlimit="10" stroke-width="2" d="M220.57 142.96V206M208.94 144.56v5.62c0 3.09 2.71 9 6 13.18l6 7.57M220.17 135.74a11.63 11.63 0 1 1 0 23.27M205.94 141.55a11.63 11.63 0 0 1-23.27 0"/><path d="M197.73 136.78v8c0 4.4 2.64 8 5.87 8h5.87" fill="none" stroke="#000" stroke-miterlimit="10" stroke-width="2"/><path d="M246.29 133.75a6 6 0 0 0-5.68-7.11 20.45 20.45 0 0 0-19.22-13.5h-.6s-.46 0-1.24.08a20.3 20.3 0 0 0-8.8 2.92l-.25.15a16.653 16.653 0 0 0-1.85 1.32l-.29.23c-.39.32-.77.67-1.15 1l-.13.13-.26.26c-4.65 4.65-5.76 7.35-12.91 7.35h-1.11a6 6 0 0 0-6 5.18 5.17 5.17 0 0 0-6.18 5h-1.89a6.85 6.85 0 0 0-6.85 6.85h21.15a6 6 0 0 0 4.54 2.07h17.65a6.85 6.85 0 0 0 6.28 4.11h11.29a6.85 6.85 0 0 0 6.28-4.11h6.07a6 6 0 0 0 1.12-11.94z" fill="#a32523"/><path d="M230.75 126.63h9.85a20.43 20.43 0 0 0-19.21-13.5h-.49a20.48 20.48 0 0 1 9.85 13.5z" style="mix-blend-mode:multiply" fill="#a32523"/><use width="11.8" height="11.8" transform="rotate(90 -85.43 121.02)" xlink:href="#m"/></g><g data-name="Move 4"><path fill="#ecc697" d="M541.65 272.92h57.14v30.9h-57.14z"/><path fill="#fff" d="M521.76 247.52l-19.89 25.4v31.45h39.78v-31.45l-19.89-25.4z"/><path fill="#a32523" d="M578.9 247.52h-57.14l19.89 25.4h57.15l-19.9-25.4z"/><path fill="#a32523" d="M570.23 236.52h8.68v15.66h-8.68zM525.58 274.93h5.69v10.16h-5.69z"/><path fill="#070f12" d="M525.58 288.75h5.69v15.08h-5.69z"/><path fill="#a32523" d="M510.13 274.93h5.69v10.16h-5.69z"/><path fill="none" stroke="#fff" stroke-miterlimit="10" stroke-width="1.27" d="M504.43 280.02h31.76"/><path fill="#a32523" d="M510.13 289.13h5.69v10.16h-5.69z"/><path fill="none" stroke="#fff" stroke-miterlimit="10" stroke-width="1.27" d="M504.43 294.22h16.22"/><path d="M526.47 292.36a2 2 0 1 1 3.94 0" fill="#e74e0f"/><use width="25.64" height="15.98" transform="translate(276 111.91)" xlink:href="#n"/></g><g data-name="Move 5"><use width="13.02" height="60.83" transform="matrix(.85 0 0 .85 70.57 249.07)" xlink:href="#l"/><use width="13.02" height="60.83" transform="matrix(.85 0 0 .85 116.15 240.37)" xlink:href="#l"/><use width="13.02" height="60.83" transform="matrix(.85 0 0 .85 146.42 257.81)" xlink:href="#l"/><use width="13.02" height="60.83" transform="matrix(.85 0 0 .85 70.54 179.07)" xlink:href="#l"/><use width="13.02" height="60.83" transform="matrix(.85 0 0 .85 146.57 188.06)" xlink:href="#l"/><use width="13.02" height="60.83" transform="matrix(.85 0 0 .85 207.78 223.42)" xlink:href="#l"/><use width="25.64" height="15.98" transform="matrix(-1 0 0 1 281.81 134.86)" xlink:href="#n"/><use width="11.8" height="11.8" transform="matrix(0 -.66 .66 0 61.46 178.21)" xlink:href="#m"/></g><g data-name="Move 6"><path fill="#a32523" d="M475.99 247.92l-.52.02-.24-.02h-31.89l5.76 23.59L423 304h74.31v-30.92l-21.32-25.16z"/><path fill="#ecc697" d="M497.12 304.37v-31.29h-69.9v-1.46h-1.25l-2.18.91-.38.39-.3 31.45h74.01z"/><path fill="#fff" d="M423.31 304h41v-30.92l-20.5-25.16-20.5 25.16V304z"/><path fill="#a32523" d="M446.69 275.06h5.69v10.16h-5.69z"/><path fill="#070f12" d="M446.69 288.88h5.69v15.08h-5.69z"/><path fill="#a32523" d="M431.24 275.06h5.69v10.16h-5.69z"/><path fill="none" stroke="#fff" stroke-miterlimit="10" stroke-width="1.27" d="M425.54 280.15h31.76"/><path fill="#a32523" d="M431.24 289.27h5.69v10.16h-5.69z"/><path fill="none" stroke="#fff" stroke-miterlimit="10" stroke-width="1.27" d="M425.54 294.36h16.22"/><path d="M447.57 292.5a2 2 0 1 1 3.94 0" fill="#e74e0f"/><path fill="#a32523" d="M466.96 237.83h8.68v14.34h-8.68z"/><use width="13.02" height="60.83" transform="matrix(.85 0 0 .85 85.78 222.92)" xlink:href="#l"/><use width="13.02" height="60.83" transform="matrix(.85 0 0 .85 161.63 231.66)" xlink:href="#l"/><use width="13.02" height="60.83" transform="matrix(.85 0 0 .85 100.99 196.77)" xlink:href="#l"/><use width="13.02" height="60.83" transform="matrix(.85 0 0 .85 192.4 179.53)" xlink:href="#l"/><use width="13.02" height="60.83" transform="matrix(.85 0 0 .85 131.41 144.46)" xlink:href="#l"/><use width="13.02" height="60.83" transform="matrix(.85 0 0 .85 162.12 162.09)" xlink:href="#l"/></g><g data-name="Move 7"><use width="64.67" height="34.21" transform="translate(262.95 233.11)" xlink:href="#o"/><use width="10.39" height="10.1" transform="translate(236.6 168.14)" xlink:href="#p"/></g><g data-name="Move 8"><use width="64.67" height="34.21" transform="matrix(-1.05 0 0 1.05 267.57 286.96)" xlink:href="#o" data-name="Cow 1"/><path d="M384.06 348a4.38 4.38 0 0 0-4.5-3h-10.17l-1 3zM408.22 348a4.38 4.38 0 0 0-4.5-3h-11.51l.82 3z" fill="#191611"/><path d="M386.62 264.48c-2.21 0-4 .85-4 3.07v8.41l5 1.59.61.76v-3.52c0-.61.3-.61.58-.61h.15a1.72 1.72 0 0 0 1.72-1.72v-4.92c-.05-2.21-1.85-3.06-4.06-3.06z" fill="#fff"/><path d="M382.59 273.15h1.86s.86-.46.86-2.12.2-1.77 1.21-1.77 3.49-1 3.49-2.68c0-.56 1.62-.25 1.62-2.53H384c-1.63 0-1.35 3.14-1.35 3.14zM379.85 346.76h-10.94l10.38-38.77h10.95l-10.39 38.77z" fill="#191611"/><path fill="#191611" d="M392.65 346.76h10.95l-10.38-38.77h-10.95l10.38 38.77z"/><path d="M378 314.4c16.95-.36 16.62-1.06 16.62-1.06l-1.31-5.34v-3h-15.17c-.14 0-2.36 5.61-.14 9.4z" fill="#191611"/><path d="M393.31 287.64s.26-5.68-4.93-12.21a44.7 44.7 0 0 0-5.76-1.72l-.62 1.79s-4.69 1.67-4.69 11.26.18 18.9.18 18.9l15.82-.18z" fill="#a32523"/><path fill="#fff" d="M391.31 300h2.99l2.11 2.42-3.15 3.06-8.04-4.64"/><path fill="#a32523" d="M377.31 285.87v12.23l10.51 5.67 3.7-4.92-5.21-3.45v-14.15l-9 4.62z"/><path fill="none" stroke="#fff" stroke-miterlimit="10" stroke-width=".945" d="M394.62 301.76l58.41 25.7"/><path d="M432.63 334v-3.93h17a44.22 44.22 0 0 0 3.76-4.11c1.25-1.68 1.95-2.09 3.35-1.94 3.49 0 3.3 1.56 4.49 2.43a7.71 7.71 0 0 0 3.24 1.06s-.12 1.87-1.37 1.87c-1 0-1.62.81-3.68.81h-2.49v8.35c0 .56 3.49 6.61 3.49 6.61s1.25.56 1.25 1.06h-2.87l-6.8-7V341l-5.24 3.8c-.87-1.06-.25-1.87.56-2.43s2.56-2.06 2.56-2.06v-2.43h-9.07a7 7 0 0 1-2 4.61c2.28 2.28 3.24 3.3 3.24 3.3h-2.37l-3.55-3.3v-3.18l-7.62 5.69v-1.05l-1.43 2.3v-2.87l5.38-4.8" fill="#191611"/><path d="M437.83 338.55c0 .56 3.49 6.61 3.49 6.61s1.25.56 1.25 1.06h-2.87l-3.58-3.74M437.83 338.55c-.56 0-9.69 7.34-9.69 7.34s-.56 1.25-1.06 1.25v-2.87l3.74-3.58M437.6 331.43h-6.33a2.61 2.61 0 0 1-2.6-2.6v-1.66a2.61 2.61 0 0 1 2.6-2.6.68.68 0 1 1 0 1.36 1.25 1.25 0 0 0-1.25 1.24v1.66a1.25 1.25 0 0 0 1.25 1.25h6.33a.68.68 0 0 1 0 1.36z" fill="#191611"/><path fill="none" stroke="#e74e0f" stroke-miterlimit="10" stroke-width=".945" d="M457.51 330.74l-5.6-3.66"/><use width="10.39" height="10.1" transform="rotate(90 59.38 155.35)" xlink:href="#p"/></g></g></svg>