<?xml version="1.0" encoding="UTF-8" standalone="no"?>
<!-- Created with Inkscape (http://www.inkscape.org/) -->

<svg
   version="1.1"
   id="svg2"
   xml:space="preserve"
   width="689.50397"
   height="170.48013"
   viewBox="0 0 689.50394 170.48013"
   sodipodi:docname="goat_white.svg"
   inkscape:version="1.1.1 (3bf5ae0d25, 2021-09-20)"
   xmlns:inkscape="http://www.inkscape.org/namespaces/inkscape"
   xmlns:sodipodi="http://sodipodi.sourceforge.net/DTD/sodipodi-0.dtd"
   xmlns="http://www.w3.org/2000/svg"
   xmlns:svg="http://www.w3.org/2000/svg"><defs
     id="defs6"><clipPath
       clipPathUnits="userSpaceOnUse"
       id="clipPath18"><path
         d="M 0,800 H 800 V 0 H 0 Z"
         id="path16" /></clipPath></defs><sodipodi:namedview
     id="namedview4"
     pagecolor="#ffffff"
     bordercolor="#666666"
     borderopacity="1.0"
     inkscape:pageshadow="2"
     inkscape:pageopacity="0.0"
     inkscape:pagecheckerboard="0"
     showgrid="false"
     fit-margin-top="0"
     fit-margin-left="0"
     fit-margin-right="0"
     fit-margin-bottom="0"
     inkscape:zoom="0.79124994"
     inkscape:cx="299.52609"
     inkscape:cy="80.252771"
     inkscape:window-width="1852"
     inkscape:window-height="1016"
     inkscape:window-x="1988"
     inkscape:window-y="27"
     inkscape:window-maximized="1"
     inkscape:current-layer="g8" /><g
     id="g8"
     inkscape:groupmode="layer"
     inkscape:label="P4B_Logotype"
     transform="matrix(1.3333333,0,0,-1.3333333,-233.46973,613.22558)"><g
       id="g12"><g
         id="g14"
         clip-path="url(#clipPath18)"><g
           id="g20"
           transform="translate(235.6983,384.5991)"><path
             d="m 0,0 h 26.796 v -31.475 c -2.854,-0.825 -5.793,-1.524 -8.845,-2.063 -4.964,-0.876 -10.013,-1.314 -15.148,-1.314 -13.428,0 -23.529,3.881 -30.298,11.647 -6.774,7.764 -10.158,19.292 -10.158,34.589 0,14.943 3.298,26.269 9.894,33.975 6.596,7.706 16.258,11.559 28.985,11.559 6.656,0 12.785,-1.023 18.389,-3.064 5.605,-2.045 11.383,-5.342 17.338,-9.895 l 7.706,16.462 c -5.254,4.786 -11.677,8.406 -19.264,10.858 -7.591,2.452 -15.762,3.678 -24.519,3.678 -12.609,0 -23.528,-2.54 -32.75,-7.618 -9.225,-5.079 -16.317,-12.378 -21.278,-21.893 -4.964,-9.516 -7.444,-20.87 -7.444,-34.062 0,-13.428 2.48,-24.899 7.444,-34.413 4.961,-9.518 12.141,-16.814 21.541,-21.892 9.397,-5.079 20.578,-7.619 33.538,-7.619 5.604,0 11.148,0.351 16.637,1.051 5.487,0.701 10.683,1.691 15.587,2.977 4.904,1.283 9.282,2.917 13.135,4.904 V 16.287 H 0 Z"
             style="fill:#ffffff;fill-opacity:1;fill-rule:nonzero;stroke:none"
             id="path22" /></g><g
           id="g24"
           transform="translate(492.8214,380.2202)"><path
             d="M 0,0 22.987,53.29 45.801,0 Z M 13.454,77.935 -42.938,-46.76 h 22.767 l 12.616,29.247 H 53.299 L 65.819,-46.76 H 88.236 L 31.844,77.935 Z"
             style="fill:#ffffff;fill-opacity:1;fill-rule:nonzero;stroke:none"
             id="path26" /></g><g
           id="g28"
           transform="translate(588.2013,458.1548)"><path
             d="m 0,0 v -18.563 h 40.631 v -106.131 h 22.768 v 106.131 h 40.63 V 0 Z"
             style="fill:#ffffff;fill-opacity:1;fill-rule:nonzero;stroke:none"
             id="path30" /></g><g
           id="g32"
           transform="translate(360.1427,405.1108)"><path
             d="M 0,0 C 2.42,0 4.381,-1.962 4.381,-4.381 4.381,-6.8 2.42,-8.761 0,-8.761 c -2.419,0 -4.38,1.961 -4.38,4.38 C -4.38,-1.962 -2.419,0 0,0"
             style="fill:#ffffff;fill-opacity:1;fill-rule:nonzero;stroke:none"
             id="path34" /></g><g
           id="g36"
           transform="translate(434.3741,404.9292)"><path
             d="m 0,0 c -0.515,2.92 -1.03,5.842 -1.891,8.764 -0.859,2.921 -1.889,5.67 -3.093,8.249 -1.202,2.577 -2.405,5.154 -3.952,7.732 -2.922,4.64 -6.185,8.765 -9.966,12.372 -3.782,3.61 -8.078,6.702 -12.89,9.624 -4.81,2.75 -9.795,4.812 -15.122,6.186 -5.325,1.375 -10.825,2.063 -16.496,2.063 -5.67,0 -11.17,-0.688 -16.498,-2.063 -5.325,-1.202 -10.31,-3.265 -15.122,-6.186 -4.64,-2.749 -8.936,-6.014 -12.888,-9.624 -3.78,-3.607 -7.046,-7.732 -9.967,-12.372 -1.546,-2.578 -2.75,-5.155 -3.953,-7.732 -1.201,-2.579 -2.232,-5.328 -3.093,-8.249 -0.858,-2.922 -1.547,-5.844 -1.889,-8.764 -0.516,-2.922 -0.689,-6.015 -0.689,-9.108 0,-2.921 0.173,-6.015 0.689,-8.937 0.342,-2.92 1.031,-5.842 1.889,-8.763 0.861,-2.921 1.892,-5.671 3.093,-8.25 1.203,-2.576 2.407,-5.153 3.953,-7.56 2.921,-4.64 6.187,-8.764 9.967,-12.372 3.952,-3.609 8.248,-6.874 12.888,-9.624 4.812,-2.92 9.797,-4.983 15.122,-6.186 5.328,-1.374 10.828,-2.062 16.498,-2.062 3.093,0 6.186,0.173 9.106,0.688 0.075,0.009 0.146,0.021 0.22,0.029 -8.948,12.796 -5.971,38.247 -5.588,41.202 l -16.724,-17.944 c -1.088,-1.167 -2.898,-0.869 -3.523,0.582 l -2.572,5.965 c -5.64,-0.8 -11.075,-0.387 -15.494,0.892 -2.713,0.784 -4.497,2.386 -5.605,4.341 0.612,-0.067 1.276,-0.108 2.004,-0.108 2.446,0 5.551,0.439 9.335,1.774 0.591,0.21 0.9,0.857 0.692,1.448 -0.209,0.589 -0.855,0.894 -1.447,0.692 -4.597,-1.623 -8.034,-1.794 -10.388,-1.533 l 2.679,4.113 c 0.399,0.613 -0.025,1.425 -0.756,1.447 l -3.588,0.11 c 0.178,2.03 0.697,3.855 1.338,5.058 3.687,6.899 8.87,19.889 19.032,30.498 8.984,9.38 18.151,7.567 20.084,9.38 25.764,24.18 49.02,-2.642 49.02,-2.642 -25.314,6.357 -32.971,-1.031 -34.627,-3.241 17.175,5.852 30.267,-7.593 30.267,-7.593 -22.595,6.21 -26.294,-6.475 -26.294,-6.475 l -0.142,0.067 C -32.757,-33.355 -2.354,-11.179 0.683,-8.863 0.674,-5.852 0.502,-2.845 0,0"
             style="fill:#ffffff;fill-opacity:1;fill-rule:nonzero;stroke:none"
             id="path38" /></g><g
           id="g40"
           transform="translate(355.7628,400.73)"><path
             d="M 0,0 C 0,-2.419 1.961,-4.38 4.38,-4.38 6.8,-4.38 8.761,-2.419 8.761,0 8.761,2.419 6.8,4.381 4.38,4.381 1.961,4.381 0,2.419 0,0"
             style="fill:#ffffff;fill-opacity:1;fill-rule:nonzero;stroke:none"
             id="path42" /></g></g></g></g></svg>
