<?xml version="1.0" encoding="UTF-8" standalone="no"?>
<!-- Created with Inkscape (http://www.inkscape.org/) -->

<svg
   width="744.90002"
   height="151.41888"
   version="1.1"
   viewBox="0 0 744.90006 151.41889"
   xml:space="preserve"
   id="svg50"
   sodipodi:docname="plan4better_standard.svg"
   inkscape:version="1.1.1 (3bf5ae0d25, 2021-09-20)"
   xmlns:inkscape="http://www.inkscape.org/namespaces/inkscape"
   xmlns:sodipodi="http://sodipodi.sourceforge.net/DTD/sodipodi-0.dtd"
   xmlns="http://www.w3.org/2000/svg"
   xmlns:svg="http://www.w3.org/2000/svg"><defs
     id="defs54" /><sodipodi:namedview
     id="namedview52"
     pagecolor="#ffffff"
     bordercolor="#666666"
     borderopacity="1.0"
     inkscape:pageshadow="2"
     inkscape:pageopacity="0.0"
     inkscape:pagecheckerboard="0"
     showgrid="false"
     fit-margin-top="0"
     fit-margin-left="0"
     fit-margin-right="0"
     fit-margin-bottom="0"
     inkscape:zoom="0.19780633"
     inkscape:cx="-1279.0289"
     inkscape:cy="-429.71325"
     inkscape:window-width="1852"
     inkscape:window-height="1043"
     inkscape:window-x="68"
     inkscape:window-y="0"
     inkscape:window-maximized="1"
     inkscape:current-layer="svg50" /><g
     transform="matrix(1.3333,0,0,-1.3333,-173.18234,590.36791)"
     id="g48"><g
       transform="translate(445.57,329.22)"
       id="g4"><path
         d="M 0,0 V 59.478 H 37.589 V 53.796 H 6.765 V 33.08 H 35.919 V 27.316 H 6.765 V 5.68 H 37.589 V 0 Z"
         fill="#283648"
         id="path2" /></g><g
       transform="translate(514.74,329.22)"
       id="g8"><path
         d="m 0,0 v 53.629 h -20.717 v 5.849 H 27.65 V 53.629 H 6.934 V 0 Z"
         fill="#283648"
         id="path6" /></g><g
       transform="translate(556.76,329.22)"
       id="g12"><path
         d="m 0,0 v 53.629 h -20.717 v 5.849 H 27.65 V 53.629 H 6.934 V 0 Z"
         fill="#283648"
         id="path10" /></g><g
       transform="translate(592.76,329.22)"
       id="g16"><path
         d="M 0,0 V 59.478 H 37.589 V 53.796 H 6.766 V 33.08 H 35.919 V 27.316 H 6.766 V 5.68 H 37.589 V 0 Z"
         fill="#283648"
         id="path14" /></g><g
       clip-path="url(#clipPath34)"
       id="g46"><g
         transform="translate(648.65,360.88)"
         id="g20"><path
           d="m 0,0 h 16.29 c 4.622,0 8.061,0.946 10.316,2.84 2.255,1.892 3.384,4.678 3.384,8.353 0,3.676 -1.115,6.418 -3.342,8.228 -2.227,1.809 -5.681,2.715 -10.358,2.715 H 0 Z m -6.766,-31.66 v 59.477 h 23.64 c 6.404,0 11.32,-1.421 14.744,-4.26 3.426,-2.841 5.137,-6.934 5.137,-12.28 0,-5.124 -1.74,-9.148 -5.22,-12.071 -3.481,-2.924 -8.368,-4.385 -14.661,-4.385 l 6.181,1.169 c 2.173,0 4.038,-0.599 5.598,-1.796 1.559,-1.198 2.811,-3.105 3.759,-5.722 l 7.517,-20.132 h -7.267 l -7.35,19.798 c -0.948,2.506 -2.242,4.162 -3.885,4.97 -1.643,0.807 -3.829,1.211 -6.558,1.211 H 0 V -31.66 Z"
           fill="#283648"
           id="path18" /></g><g
         transform="translate(136.74,415.09)"
         id="g24"><path
           d="m 0,0 h 16.288 c 4.4,0 7.714,0.961 9.941,2.882 2.228,1.921 3.342,4.636 3.342,8.145 0,3.508 -1.114,6.209 -3.342,8.103 -2.227,1.892 -5.541,2.84 -9.941,2.84 H 0 Z m -6.85,-31.827 v 59.478 h 23.724 c 6.125,0 10.901,-1.477 14.325,-4.428 3.426,-2.952 5.139,-7.017 5.139,-12.196 0,-5.125 -1.728,-9.189 -5.179,-12.196 C 27.704,-4.177 22.943,-5.68 16.874,-5.68 H 0 v -26.147 z"
           fill="#283648"
           id="path22" /></g><g
         transform="translate(180.94,383.27)"
         id="g28"><path
           d="M 0,0 V 59.478 H 6.85 V 5.847 H 36.671 V 0 Z"
           fill="#283648"
           id="path26" /></g><g
         transform="translate(238.79,398.55)"
         id="g32"><path
           d="M 0,0 2.423,5.68 H 33.666 L 36.088,0 Z m -4.01,-15.287 h -7.1 L 15.037,44.19 h 6.015 L 47.198,-15.287 H 40.181 L 16.875,39.178 h 2.506 z"
           fill="#283648"
           id="path30" /></g><g
         transform="translate(293.18,383.27)"
         id="g36"><path
           d="M 0,0 V 59.478 H 5.262 L 43.188,8.938 41.183,8.437 v 51.041 h 6.515 V 0 H 42.352 L 4.51,50.455 6.431,51.041 V 0 Z"
           fill="#283648"
           id="path34" /></g><g
         transform="translate(423.14,337.49)"
         id="g40"><path
           d="m 0,0 c -2.2,-1.727 -5.639,-2.589 -10.316,-2.589 h -17.376 v 21.636 h 17.376 c 4.622,0 8.046,-0.92 10.274,-2.757 C 2.185,14.452 3.299,11.723 3.299,8.104 3.299,4.428 2.2,1.726 0,0 m 6.892,17.626 c -1.911,2.311 -4.515,3.834 -7.741,4.649 2.783,1.026 5.036,2.559 6.697,4.665 1.864,2.367 2.798,5.276 2.798,8.73 0,4.956 -1.7,8.785 -5.095,11.486 -2.671,2.122 -6.162,3.398 -10.448,3.853 v -5.864 c 2.251,-0.402 4.066,-1.122 5.436,-2.166 2.226,-1.7 3.341,-4.247 3.341,-7.644 0,-3.453 -1.129,-6.07 -3.383,-7.851 -2.256,-1.784 -5.639,-2.673 -10.15,-2.673 l -22.805,0.138 V -8.27 h 24.726 c 6.293,0 11.166,1.392 14.619,4.177 3.452,2.784 5.179,6.794 5.179,12.03 0,3.897 -1.058,7.127 -3.174,9.689"
           fill="#283648"
           id="path38" /></g><g
         transform="translate(388.73,388.88)"
         id="g44"><path
           d="M 0,0 -30.96,0.215 0.028,44 Z M 6.723,-5.86 H 19.77 v 5.681 h -0.34 v 0.044 l -14.11,0.098 0.034,52.406 -4.832,1.538 -38.771,-54.78 2.154,-4.197 36.053,-0.25 v -13.37 h 6.765 z"
           fill="#2bb481"
           id="path42" /></g></g></g></svg>
