<!-- Generated by IcoMoon.io -->
<svg version="1.1" xmlns="http://www.w3.org/2000/svg" width="32" height="32" viewBox="0 0 32 32">
<title>Open-data_source</title>
<path fill="#eeedec" d="M32 16c0 8.837-7.163 16-16 16s-16-7.163-16-16c0-8.837 7.163-16 16-16s16 7.163 16 16z"></path>
<path fill="#19b037" d="M16 8.519c-2.281 0-4.131 1.849-4.131 4.131s1.849 4.131 4.131 4.131c2.281 0 4.131-1.849 4.131-4.131v0c-0.003-2.28-1.85-4.128-4.13-4.131h-0zM18.514 13.168c0.012-0.169 0.020-0.342 0.020-0.519s-0.008-0.349-0.020-0.519c0.646 0.179 0.982 0.395 0.982 0.519s-0.336 0.341-0.982 0.519zM12.504 12.649c0-0.125 0.336-0.34 0.982-0.519-0.012 0.17-0.019 0.342-0.019 0.519s0.008 0.349 0.019 0.519c-0.646-0.178-0.982-0.395-0.982-0.518zM14.101 12.649c0-0.234 0.013-0.464 0.039-0.691l-0.003 0.028c0.25-0.043 0.523-0.080 0.824-0.106-0.010 0.25-0.015 0.508-0.015 0.769s0.005 0.518 0.015 0.769c-0.302-0.026-0.577-0.063-0.824-0.106-0.023-0.199-0.036-0.429-0.036-0.662v-0zM16.418 12.649c0 0.286-0.006 0.553-0.017 0.806q-0.195 0.006-0.402 0.006t-0.401-0.006c-0.011-0.25-0.017-0.52-0.017-0.806s0.006-0.553 0.017-0.806q0.195-0.006 0.401-0.006t0.402 0.006c0.011 0.253 0.017 0.521 0.017 0.806zM16.363 14.091c-0.082 1.004-0.238 1.663-0.363 1.942-0.125-0.279-0.281-0.938-0.363-1.942q0.182 0.005 0.363 0.005t0.364-0.004zM16 11.204q-0.181 0-0.363 0.005c0.082-1.004 0.238-1.663 0.363-1.943 0.125 0.279 0.281 0.938 0.363 1.942q-0.182-0.005-0.363-0.005zM16.832 9.891c-0.033-0.172-0.069-0.326-0.108-0.464 0.459 0.361 0.832 1.050 1.027 1.897-0.243-0.036-0.494-0.063-0.75-0.084-0.036-0.507-0.096-0.969-0.182-1.421l0.012 0.075zM15.276 9.427c-0.038 0.138-0.074 0.293-0.107 0.464-0.074 0.38-0.133 0.843-0.166 1.314l-0.002 0.038c-0.256 0.020-0.508 0.047-0.75 0.084 0.193-0.847 0.566-1.536 1.026-1.898zM15 14.057c0.036 0.508 0.096 0.97 0.182 1.424l-0.012-0.075c0.033 0.172 0.069 0.326 0.107 0.464-0.459-0.361-0.832-1.050-1.027-1.897 0.241 0.036 0.492 0.064 0.75 0.084zM16.726 15.87c0.038-0.138 0.074-0.293 0.108-0.464 0.073-0.379 0.132-0.841 0.164-1.311l0.002-0.037c0.256-0.020 0.508-0.047 0.75-0.084-0.193 0.848-0.566 1.536-1.026 1.897zM17.039 13.418c0.009-0.25 0.015-0.508 0.015-0.769s-0.005-0.518-0.015-0.769c0.302 0.026 0.577 0.063 0.824 0.106 0.023 0.199 0.036 0.429 0.036 0.663s-0.013 0.464-0.039 0.691l0.003-0.028c-0.248 0.045-0.523 0.081-0.824 0.107zM19.385 11.773c-0.273-0.13-0.592-0.24-0.925-0.315l-0.031-0.006c-0.129-0.716-0.37-1.346-0.693-1.836 0.807 0.469 1.401 1.229 1.643 2.133l0.006 0.025zM14.264 9.616c-0.323 0.491-0.563 1.119-0.693 1.836-0.364 0.080-0.683 0.191-0.984 0.333l0.028-0.012c0.249-0.927 0.842-1.686 1.632-2.145l0.017-0.009zM12.616 13.524c0.273 0.13 0.592 0.24 0.925 0.315l0.031 0.006c0.129 0.716 0.37 1.346 0.693 1.836-0.807-0.468-1.401-1.227-1.644-2.13l-0.006-0.025zM17.736 15.681c0.323-0.491 0.563-1.119 0.693-1.836 0.363-0.080 0.683-0.191 0.984-0.333l-0.028 0.012c-0.248 0.929-0.842 1.689-1.633 2.149l-0.017 0.009z"></path>
<path fill="#19b037" d="M23.261 16.125h-0.952c-0-0.877-0.431-1.654-1.092-2.13l-0.008-0.005c-0.618 2.339-2.715 4.036-5.208 4.036s-4.591-1.697-5.2-3.998l-0.008-0.038c-0.669 0.482-1.1 1.258-1.1 2.136v0h-0.953c-1.452 0-2.629 1.177-2.629 2.629v0c0 1.452 1.177 2.629 2.629 2.629v0h14.521c1.452 0 2.629-1.177 2.629-2.629v0c0-1.452-1.177-2.629-2.629-2.629v0z"></path>
</svg>
